<svg xmlns="http://www.w3.org/2000/svg" width="24" height="24" fill="none" viewBox="0 0 24 24"><path fill="currentColor" d="M12.65 1.78C12.24 1.58 11.76 1.58 11.35 1.78C11 1.94 10.81 2.24 10.71 2.4C10.61 2.56 10.5 2.77 10.4 2.98L8.25 7.35L3.42 8.05C3.2 8.08 2.96 8.12 2.77 8.16C2.59 8.21 2.25 8.3 1.99 8.59C1.67 8.92 1.53 9.37 1.59 9.81C1.64 10.2 1.86 10.48 1.98 10.62C2.1 10.77 2.27 10.93 2.44 11.09L5.93 14.49L5.1 19.29C5.06 19.51 5.02 19.75 5.01 19.94C4.99 20.13 4.98 20.48 5.17 20.82C5.38 21.22 5.77 21.5 6.21 21.58C6.6 21.65 6.92 21.53 7.1 21.46C7.28 21.38 7.49 21.27 7.69 21.17L12 18.9L16.31 21.17C16.51 21.27 16.72 21.38 16.9 21.46C17.08 21.53 17.4 21.65 17.79 21.58C18.23 21.5 18.62 21.22 18.83 20.82C19.02 20.48 19.01 20.13 18.99 19.94C18.98 19.75 18.94 19.51 18.9 19.29L18.07 14.49L21.56 11.09C21.73 10.93 21.9 10.77 22.02 10.62C22.14 10.48 22.36 10.2 22.41 9.81C22.47 9.37 22.33 8.92 22.01 8.59C21.75 8.3 21.41 8.21 21.23 8.16C21.04 8.12 20.8 8.08 20.58 8.05L15.75 7.35L13.6 2.98C13.5 2.77 13.39 2.56 13.29 2.4C13.19 2.24 13 1.94 12.65 1.78Z"/></svg>
