<svg width="1944" height="1080" viewBox="0 0 1944 1080" fill="none" xmlns="http://www.w3.org/2000/svg">
<g clip-path="url(#clip0_515_2419)">
<rect width="1944" height="1080" fill="#FEFDFF"/>
<rect width="1944" height="1080" fill="url(#paint0_linear_515_2419)"/>
<path d="M817.694 528V453.326H790.677V439.192H860.847V453.326H833.955V528H817.694ZM862.889 528V439.192H878.9V476.466H876.898C877.565 472.631 878.9 469.504 880.901 467.085C882.902 464.584 885.362 462.749 888.281 461.582C891.199 460.331 894.41 459.705 897.912 459.705C902.832 459.705 906.96 460.789 910.295 462.958C913.714 465.042 916.257 468.003 917.925 471.838C919.676 475.674 920.552 480.094 920.552 485.097V528H904.541V488.975C904.541 483.554 903.624 479.51 901.79 476.842C899.955 474.09 897.078 472.714 893.159 472.714C888.823 472.714 885.362 474.132 882.777 476.967C880.192 479.802 878.9 483.93 878.9 489.35V528H862.889ZM959.914 529.501C953.243 529.501 947.447 528.083 942.527 525.248C937.608 522.33 933.813 518.244 931.145 512.99C928.477 507.737 927.142 501.608 927.142 494.603C927.142 487.599 928.477 481.511 931.145 476.341C933.813 471.088 937.566 467.002 942.402 464.083C947.322 461.165 953.034 459.705 959.539 459.705C965.876 459.705 971.421 461.123 976.174 463.958C981.011 466.793 984.722 470.879 987.307 476.216C989.892 481.553 991.184 487.974 991.184 495.479V499.106H943.778C944.112 504.943 945.696 509.363 948.531 512.365C951.45 515.283 955.286 516.743 960.039 516.743C963.625 516.743 966.585 515.95 968.92 514.366C971.338 512.698 973.006 510.405 973.923 507.487L990.309 508.487C988.474 514.992 984.847 520.12 979.426 523.872C974.09 527.625 967.585 529.501 959.914 529.501ZM943.778 488.349H974.673C974.34 482.929 972.797 478.926 970.045 476.341C967.294 473.673 963.791 472.339 959.539 472.339C955.286 472.339 951.742 473.715 948.907 476.466C946.155 479.218 944.445 483.179 943.778 488.349ZM1017.29 528L1049.32 439.192H1069.2L1101.22 528H1084.21L1076.83 506.986H1041.69L1034.31 528H1017.29ZM1046.44 493.102H1072.08L1059.32 455.578L1046.44 493.102ZM1105.27 528V439.192H1121.53V528H1105.27ZM1145.89 643.001C1137.47 643.001 1130.21 641.042 1124.13 637.122C1118.04 633.12 1113.37 627.658 1110.12 620.737C1106.95 613.816 1105.36 605.81 1105.36 596.721C1105.36 587.799 1106.99 579.835 1110.24 572.831C1113.58 565.826 1118.33 560.322 1124.5 556.32C1130.67 552.234 1138.09 550.191 1146.76 550.191C1154.27 550.191 1160.57 551.483 1165.65 554.068C1170.82 556.653 1174.95 560.239 1178.04 564.825C1181.12 569.412 1183.29 574.707 1184.54 580.711L1167.53 581.586C1166.61 576.333 1164.53 572.163 1161.27 569.078C1158.11 565.909 1153.31 564.325 1146.89 564.325C1141.22 564.325 1136.55 565.784 1132.88 568.703C1129.3 571.621 1126.59 575.541 1124.75 580.461C1123 585.297 1122.12 590.717 1122.12 596.721C1122.12 602.892 1123 608.395 1124.75 613.232C1126.5 618.068 1129.21 621.904 1132.88 624.739C1136.63 627.491 1141.34 628.867 1147.02 628.867C1151.43 628.867 1155.23 627.95 1158.4 626.115C1161.57 624.281 1164.07 621.779 1165.9 618.61C1167.74 615.358 1168.74 611.773 1168.9 607.853H1147.02V595.22H1184.79V641H1174.28L1173.28 621.487L1175.28 622.738C1174.37 626.741 1172.49 630.285 1169.65 633.37C1166.9 636.372 1163.44 638.749 1159.27 640.5C1155.19 642.167 1150.73 643.001 1145.89 643.001ZM1213.36 642.501C1206.35 642.501 1200.73 640.917 1196.47 637.748C1192.22 634.496 1190.09 629.993 1190.09 624.239C1190.09 618.485 1191.89 613.982 1195.47 610.73C1199.06 607.478 1204.52 605.143 1211.86 603.726L1234 599.348C1234 594.595 1232.91 591.051 1230.75 588.716C1228.58 586.298 1225.37 585.089 1221.11 585.089C1217.28 585.089 1214.24 586.006 1211.98 587.84C1209.82 589.591 1208.31 592.135 1207.48 595.47L1191.22 594.72C1192.55 587.632 1195.81 582.212 1200.98 578.459C1206.15 574.623 1212.86 572.705 1221.11 572.705C1230.62 572.705 1237.79 575.124 1242.63 579.96C1247.55 584.713 1250.01 591.551 1250.01 600.474V624.739C1250.01 626.491 1250.3 627.7 1250.88 628.367C1251.55 629.034 1252.51 629.367 1253.76 629.367H1255.89V641C1255.39 641.167 1254.55 641.292 1253.39 641.375C1252.3 641.459 1251.18 641.5 1250.01 641.5C1247.26 641.5 1244.8 641.083 1242.63 640.25C1240.46 639.332 1238.79 637.79 1237.63 635.621C1236.46 633.37 1235.87 630.326 1235.87 626.491L1237.25 627.491C1236.58 630.41 1235.12 633.036 1232.87 635.371C1230.7 637.623 1227.95 639.374 1224.62 640.625C1221.28 641.876 1217.53 642.501 1213.36 642.501ZM1216.61 630.868C1220.2 630.868 1223.28 630.16 1225.87 628.742C1228.45 627.324 1230.45 625.365 1231.87 622.863C1233.29 620.362 1234 617.401 1234 613.982V610.23L1216.74 613.732C1213.15 614.483 1210.57 615.608 1208.98 617.109C1207.48 618.527 1206.73 620.403 1206.73 622.738C1206.73 625.323 1207.56 627.324 1209.23 628.742C1210.98 630.16 1213.44 630.868 1216.61 630.868ZM1260.88 659.762V574.206H1276.27L1276.64 588.466L1275.02 587.715C1276.68 582.795 1279.39 579.085 1283.15 576.583C1286.98 573.998 1291.44 572.705 1296.53 572.705C1302.87 572.705 1308.12 574.29 1312.29 577.459C1316.54 580.627 1319.71 584.838 1321.8 590.092C1323.88 595.345 1324.92 601.182 1324.92 607.603C1324.92 614.024 1323.84 619.861 1321.67 625.115C1319.59 630.368 1316.42 634.579 1312.16 637.748C1308 640.917 1302.74 642.501 1296.4 642.501C1293.07 642.501 1289.94 641.917 1287.02 640.75C1284.19 639.582 1281.73 637.915 1279.64 635.747C1277.64 633.578 1276.22 631.035 1275.39 628.117L1276.89 626.866V659.762H1260.88ZM1292.65 629.492C1297.49 629.492 1301.28 627.575 1304.03 623.739C1306.87 619.82 1308.29 614.441 1308.29 607.603C1308.29 600.765 1306.87 595.429 1304.03 591.593C1301.28 587.674 1297.49 585.714 1292.65 585.714C1289.4 585.714 1286.61 586.548 1284.27 588.216C1281.94 589.8 1280.1 592.218 1278.77 595.47C1277.52 598.722 1276.89 602.767 1276.89 607.603C1276.89 612.44 1277.52 616.484 1278.77 619.736C1280.02 622.988 1281.81 625.448 1284.15 627.116C1286.56 628.7 1289.4 629.492 1292.65 629.492Z" fill="black"/>
<path d="M658.716 643.001C651.377 643.001 645.04 641.709 639.703 639.124C634.366 636.539 630.155 632.953 627.07 628.367C624.068 623.697 622.317 618.277 621.816 612.106L638.327 611.106C638.828 614.941 639.912 618.193 641.579 620.862C643.331 623.53 645.624 625.573 648.459 626.991C651.377 628.325 654.88 628.992 658.966 628.992C662.468 628.992 665.428 628.575 667.847 627.741C670.348 626.824 672.224 625.532 673.475 623.864C674.809 622.113 675.476 619.986 675.476 617.485C675.476 615.233 674.934 613.232 673.85 611.481C672.766 609.646 670.682 608.02 667.596 606.603C664.511 605.102 659.925 603.642 653.837 602.225C646.499 600.557 640.62 598.681 636.201 596.596C631.781 594.428 628.571 591.76 626.57 588.591C624.568 585.339 623.568 581.294 623.568 576.458C623.568 571.288 624.86 566.743 627.445 562.824C630.03 558.821 633.699 555.736 638.452 553.568C643.205 551.317 648.917 550.191 655.589 550.191C662.676 550.191 668.68 551.483 673.6 554.068C678.52 556.57 682.398 560.031 685.233 564.45C688.068 568.87 689.819 573.956 690.486 579.71L674.101 580.461C673.684 577.208 672.683 574.373 671.099 571.955C669.598 569.537 667.513 567.66 664.845 566.326C662.26 564.909 659.091 564.2 655.338 564.2C650.669 564.2 646.958 565.284 644.206 567.452C641.538 569.537 640.203 572.33 640.203 575.832C640.203 578.251 640.746 580.252 641.83 581.836C642.997 583.421 645.04 584.797 647.959 585.964C650.877 587.048 654.963 588.216 660.217 589.466C668.138 591.134 674.434 593.261 679.104 595.846C683.774 598.431 687.109 601.433 689.11 604.851C691.112 608.27 692.112 612.19 692.112 616.609C692.112 622.029 690.736 626.741 687.985 630.743C685.233 634.663 681.355 637.706 676.352 639.874C671.349 641.959 665.47 643.001 658.716 643.001ZM732.083 642.501C725.412 642.501 719.617 641.083 714.697 638.248C709.777 635.33 705.983 631.244 703.314 625.99C700.646 620.737 699.312 614.608 699.312 607.603C699.312 600.599 700.646 594.511 703.314 589.341C705.983 584.088 709.735 580.002 714.572 577.083C719.492 574.165 725.204 572.705 731.708 572.705C738.045 572.705 743.591 574.123 748.344 576.958C753.18 579.793 756.891 583.879 759.476 589.216C762.061 594.553 763.354 600.974 763.354 608.479V612.106H715.948C716.281 617.943 717.866 622.363 720.701 625.365C723.619 628.283 727.455 629.743 732.208 629.743C735.794 629.743 738.754 628.95 741.089 627.366C743.507 625.698 745.175 623.405 746.092 620.487L762.478 621.487C760.643 627.992 757.016 633.12 751.596 636.872C746.259 640.625 739.755 642.501 732.083 642.501ZM715.948 601.349H746.843C746.509 595.929 744.967 591.926 742.215 589.341C739.463 586.673 735.961 585.339 731.708 585.339C727.455 585.339 723.911 586.715 721.076 589.466C718.324 592.218 716.615 596.179 715.948 601.349ZM799.484 642.501C792.813 642.501 787.017 641.083 782.098 638.248C777.178 635.33 773.342 631.244 770.59 625.99C767.922 620.737 766.587 614.608 766.587 607.603C766.587 600.599 767.922 594.511 770.59 589.341C773.342 584.088 777.178 580.002 782.098 577.083C787.017 574.165 792.813 572.705 799.484 572.705C805.154 572.705 810.199 573.706 814.619 575.707C819.038 577.709 822.624 580.586 825.376 584.338C828.211 588.007 829.962 592.51 830.629 597.847L814.118 598.722C813.451 594.47 811.784 591.259 809.115 589.091C806.53 586.84 803.32 585.714 799.484 585.714C794.314 585.714 790.311 587.674 787.476 591.593C784.641 595.429 783.223 600.765 783.223 607.603C783.223 614.524 784.641 619.903 787.476 623.739C790.311 627.575 794.314 629.492 799.484 629.492C803.403 629.492 806.655 628.367 809.24 626.115C811.909 623.864 813.535 620.362 814.118 615.608L830.629 616.359C829.962 621.696 828.253 626.324 825.501 630.243C822.749 634.162 819.163 637.206 814.744 639.374C810.324 641.459 805.238 642.501 799.484 642.501ZM858.411 642.501C851.657 642.501 846.279 640.291 842.276 635.872C838.357 631.369 836.397 625.156 836.397 617.234V574.206H852.408V613.232C852.408 618.819 853.325 622.947 855.159 625.615C857.077 628.2 859.954 629.492 863.79 629.492C868.126 629.492 871.462 628.075 873.796 625.24C876.215 622.321 877.424 618.11 877.424 612.606V574.206H893.434V641H878.8L878.424 622.613L880.426 623.238C879.425 629.576 877.049 634.371 873.296 637.623C869.544 640.875 864.582 642.501 858.411 642.501ZM905.627 641V574.206H920.637L921.262 592.719L919.886 592.468C920.887 586.047 922.763 581.419 925.515 578.584C928.35 575.666 932.186 574.206 937.023 574.206H943.152V587.965H936.898C933.479 587.965 930.643 588.466 928.392 589.466C926.141 590.467 924.431 592.051 923.264 594.219C922.18 596.304 921.638 599.056 921.638 602.475V641H905.627ZM948.106 641V574.206H964.117V641H948.106ZM947.856 565.326V551.066H964.492V565.326H947.856ZM998.909 641C992.237 641 987.318 639.457 984.149 636.372C981.064 633.287 979.521 628.45 979.521 621.863V558.571H995.531V620.362C995.531 623.447 996.198 625.615 997.533 626.866C998.867 628.033 1000.95 628.617 1003.79 628.617H1013.17V641H998.909ZM969.014 586.59V574.206H1013.17V586.59H969.014ZM1023.4 659.762V647.379H1031.91C1034.08 647.379 1035.66 647.046 1036.66 646.379C1037.75 645.711 1038.58 644.586 1039.16 643.001L1041.04 638.373H1036.41L1012.52 574.206H1029.16L1045.92 623.363L1061.93 574.206H1078.57L1052.42 648.005C1050.92 652.174 1048.8 655.176 1046.04 657.01C1043.38 658.845 1039.62 659.762 1034.79 659.762H1023.4Z" fill="#1C91FF"/>
<path d="M1056 76H1028V104H1056V76Z" fill="#FFAA0D"/>
<path d="M888 104C903.464 104 916 91.464 916 76C916 60.536 903.464 48 888 48C872.536 48 860 60.536 860 76C860 91.464 872.536 104 888 104Z" fill="#E2F78C"/>
<path d="M944 104C959.464 104 972 91.464 972 76C972 60.536 959.464 48 944 48C928.536 48 916 60.536 916 76C916 91.464 928.536 104 944 104Z" fill="#FFC3DF"/>
<path d="M888 48H860V104H888V48Z" fill="#418B5C"/>
<path d="M972 48H916V76H972V48Z" fill="#E14322"/>
<path d="M1084 48V76H1000L999.639 75.9951C992.074 75.8036 986 69.6112 986 62C986 54.268 992.268 48 1000 48H1084Z" fill="#3B82F6"/>
<path fill-rule="evenodd" clip-rule="evenodd" d="M972 104V76H1000C1007.73 76 1014 82.268 1014 90C1014 97.732 1007.73 104 1000 104H972Z" fill="#9FDBFF"/>
<path d="M0 1079.83C-8.03356e-09 1055.58 19.992 1035.92 44.2428 1035.92L44.2428 1079.83L0 1079.83Z" fill="#FFAA0D"/>
<path d="M66.3646 1079.83C78.5811 1079.83 88.486 1070 88.486 1057.88C88.486 1045.75 78.5811 1035.92 66.3646 1035.92C54.148 1035.92 44.2432 1045.75 44.2432 1057.88C44.2432 1070 54.148 1079.83 66.3646 1079.83Z" fill="#E14322"/>
<path d="M110.607 1080C98.3894 1080 88.4854 1070.1 88.4854 1057.88C88.4854 1045.66 98.3894 1035.76 110.607 1035.76L132.395 1035.76L132.395 1080L110.607 1080Z" fill="#E2F78C"/>
<path d="M132.396 1035.92C156.646 1035.92 176.638 1055.58 176.638 1079.83L132.396 1079.83L132.396 1035.92Z" fill="#1C91FF"/>
<path d="M198.76 1079.83C210.977 1079.83 220.881 1070 220.881 1057.88C220.881 1045.75 210.977 1035.92 198.76 1035.92C186.544 1035.92 176.639 1045.75 176.639 1057.88C176.639 1070 186.544 1079.83 198.76 1079.83Z" fill="#418B5C"/>
<path d="M220.881 1058.05C220.881 1045.83 230.785 1035.92 243.002 1035.92C255.22 1035.92 265.124 1045.83 265.124 1058.05L265.124 1079.83L220.881 1079.83L220.881 1058.05Z" fill="#9FDBFF"/>
<rect x="265.124" y="1035.92" width="44.2428" height="43.91" fill="#FFC3DF"/>
<path d="M309.367 1035.92C333.618 1035.92 353.61 1055.58 353.61 1079.83L309.367 1079.83L309.367 1035.92Z" fill="#FFE262"/>
<path d="M353.609 1079.83C353.609 1055.58 373.601 1035.92 397.852 1035.92L397.852 1079.83L353.609 1079.83Z" fill="#FFAA0D"/>
<path d="M419.974 1079.83C432.19 1079.83 442.095 1070 442.095 1057.88C442.095 1045.75 432.19 1035.92 419.974 1035.92C407.757 1035.92 397.853 1045.75 397.853 1057.88C397.853 1070 407.757 1079.83 419.974 1079.83Z" fill="#E14322"/>
<path d="M464.217 1080C452 1080 442.096 1070.1 442.096 1057.88C442.096 1045.66 452 1035.76 464.217 1035.76L486.006 1035.76L486.006 1080L464.217 1080Z" fill="#E2F78C"/>
<path d="M486.006 1035.92C510.257 1035.92 530.249 1055.58 530.249 1079.83L486.006 1079.83L486.006 1035.92Z" fill="#1C91FF"/>
<path d="M530.248 1079.83C530.248 1055.58 550.24 1035.92 574.491 1035.92L574.491 1079.83L530.248 1079.83Z" fill="#FFAA0D"/>
<path d="M596.613 1079.83C608.829 1079.83 618.734 1070 618.734 1057.88C618.734 1045.75 608.829 1035.92 596.613 1035.92C584.396 1035.92 574.491 1045.75 574.491 1057.88C574.491 1070 584.396 1079.83 596.613 1079.83Z" fill="#E14322"/>
<path d="M640.855 1080C628.637 1080 618.733 1070.1 618.733 1057.88C618.733 1045.66 628.637 1035.76 640.855 1035.76L662.643 1035.76L662.643 1080L640.855 1080Z" fill="#E2F78C"/>
<path d="M662.644 1035.92C686.894 1035.92 706.886 1055.58 706.886 1079.83L662.644 1079.83L662.644 1035.92Z" fill="#1C91FF"/>
<path d="M729.008 1079.83C741.225 1079.83 751.13 1070 751.13 1057.88C751.13 1045.75 741.225 1035.92 729.008 1035.92C716.792 1035.92 706.887 1045.75 706.887 1057.88C706.887 1070 716.792 1079.83 729.008 1079.83Z" fill="#418B5C"/>
<path d="M751.129 1058.05C751.129 1045.83 761.033 1035.92 773.25 1035.92C785.468 1035.92 795.372 1045.83 795.372 1058.05L795.372 1079.83L751.129 1079.83L751.129 1058.05Z" fill="#9FDBFF"/>
<rect x="795.372" y="1035.92" width="44.2428" height="43.91" fill="#FFC3DF"/>
<path d="M839.615 1035.92C863.866 1035.92 883.858 1055.58 883.858 1079.83L839.615 1079.83L839.615 1035.92Z" fill="#FFE262"/>
<path d="M883.857 1079.83C883.857 1055.58 903.849 1035.92 928.1 1035.92L928.1 1079.83L883.857 1079.83Z" fill="#FFAA0D"/>
<path d="M950.222 1079.83C962.439 1079.83 972.343 1070 972.343 1057.88C972.343 1045.75 962.439 1035.92 950.222 1035.92C938.005 1035.92 928.101 1045.75 928.101 1057.88C928.101 1070 938.005 1079.83 950.222 1079.83Z" fill="#E14322"/>
<path d="M994.464 1080C982.247 1080 972.343 1070.1 972.343 1057.88C972.343 1045.66 982.247 1035.76 994.464 1035.76L1016.25 1035.76L1016.25 1080L994.464 1080Z" fill="#E2F78C"/>
<path d="M1016.25 1035.92C1040.5 1035.92 1060.5 1055.58 1060.5 1079.83L1016.25 1079.83L1016.25 1035.92Z" fill="#1C91FF"/>
<rect x="1060.5" y="1035.92" width="44.2428" height="43.91" fill="#9FDBFF"/>
<path d="M1148.98 1079.83C1124.73 1079.83 1104.74 1060.17 1104.74 1035.92L1148.98 1035.92L1148.98 1079.83Z" fill="#FFE262"/>
<path d="M1148.98 1035.92C1173.23 1035.92 1193.22 1055.58 1193.22 1079.83L1148.98 1079.83L1148.98 1035.92Z" fill="#FFC3DF"/>
<rect x="1237.47" y="1079.83" width="44.2428" height="43.91" transform="rotate(-180 1237.47 1079.83)" fill="#9FDBFF"/>
<path d="M1281.71 1035.92C1281.71 1060.17 1261.72 1079.83 1237.47 1079.83L1237.47 1035.92L1281.71 1035.92Z" fill="#E14322"/>
<path d="M1281.71 1058.05C1281.71 1045.83 1291.61 1035.92 1303.83 1035.92C1316.05 1035.92 1325.95 1045.83 1325.95 1058.05L1325.95 1079.83L1281.71 1079.83L1281.71 1058.05Z" fill="#FFE262"/>
<path d="M1348.07 1035.92C1335.86 1035.92 1325.95 1045.75 1325.95 1057.88C1325.95 1070 1335.86 1079.83 1348.07 1079.83C1360.29 1079.83 1370.2 1070 1370.2 1057.88C1370.2 1045.75 1360.29 1035.92 1348.07 1035.92Z" fill="#FFC3DF"/>
<path d="M1414.44 1035.92C1414.44 1060.17 1394.45 1079.83 1370.2 1079.83L1370.2 1035.92L1414.44 1035.92Z" fill="#FFAA0D"/>
<path d="M1458.68 1079.83C1434.43 1079.83 1414.44 1060.17 1414.44 1035.92L1458.68 1035.92L1458.68 1079.83Z" fill="#1C91FF"/>
<path d="M1480.47 1035.76C1492.69 1035.76 1502.59 1045.66 1502.59 1057.88C1502.59 1070.1 1492.69 1080 1480.47 1080L1458.68 1080L1458.68 1035.76L1480.47 1035.76Z" fill="#9FDBFF"/>
<rect x="1546.83" y="1079.83" width="44.2428" height="43.91" transform="rotate(-180 1546.83 1079.83)" fill="#FFC3DF"/>
<path d="M1568.96 1035.92C1556.74 1035.92 1546.83 1045.75 1546.83 1057.88C1546.83 1070 1556.74 1079.83 1568.96 1079.83C1581.17 1079.83 1591.08 1070 1591.08 1057.88C1591.08 1045.75 1581.17 1035.92 1568.96 1035.92Z" fill="#418B5C"/>
<path d="M1591.08 1079.83C1591.08 1055.58 1611.07 1035.92 1635.32 1035.92L1635.32 1079.83L1591.08 1079.83Z" fill="#FFAA0D"/>
<path d="M1657.44 1079.83C1669.66 1079.83 1679.56 1070 1679.56 1057.88C1679.56 1045.75 1669.66 1035.92 1657.44 1035.92C1645.23 1035.92 1635.32 1045.75 1635.32 1057.88C1635.32 1070 1645.23 1079.83 1657.44 1079.83Z" fill="#E14322"/>
<path d="M1701.68 1080C1689.47 1080 1679.56 1070.1 1679.56 1057.88C1679.56 1045.66 1689.47 1035.76 1701.68 1035.76L1723.47 1035.76L1723.47 1080L1701.68 1080Z" fill="#E2F78C"/>
<path d="M1723.47 1035.92C1747.72 1035.92 1767.72 1055.58 1767.72 1079.83L1723.47 1079.83L1723.47 1035.92Z" fill="#1C91FF"/>
<path d="M1789.84 1079.83C1802.05 1079.83 1811.96 1070 1811.96 1057.88C1811.96 1045.75 1802.05 1035.92 1789.84 1035.92C1777.62 1035.92 1767.71 1045.75 1767.71 1057.88C1767.71 1070 1777.62 1079.83 1789.84 1079.83Z" fill="#418B5C"/>
<path d="M1811.96 1058.05C1811.96 1045.83 1821.86 1035.92 1834.08 1035.92C1846.3 1035.92 1856.2 1045.83 1856.2 1058.05L1856.2 1079.83L1811.96 1079.83L1811.96 1058.05Z" fill="#9FDBFF"/>
<rect x="1856.2" y="1035.92" width="44.2428" height="43.91" fill="#FFC3DF"/>
<path d="M1900.44 1035.92C1924.69 1035.92 1944.69 1055.58 1944.69 1079.83L1900.44 1079.83L1900.44 1035.92Z" fill="#FFE262"/>
</g>
<defs>
<linearGradient id="paint0_linear_515_2419" x1="602.479" y1="2130.87" x2="791.184" y2="277.116" gradientUnits="userSpaceOnUse">
<stop offset="0.682319" stop-color="#E9F7FF"/>
<stop offset="1" stop-color="white"/>
</linearGradient>
<clipPath id="clip0_515_2419">
<rect width="1944" height="1080" fill="white"/>
</clipPath>
</defs>
</svg>
