<svg xmlns="http://www.w3.org/2000/svg" width="154" height="21" viewBox="0 0 154 21" fill="none">
  <g clip-path="url(#clip0_4_1111)">
    <path d="M115.444 16.4792C115.444 15.7398 115.108 15.1114 114.475 14.6677C113.841 14.2241 112.834 13.8544 111.529 13.5956C110.224 13.3369 109.217 13.0411 108.471 12.7084C107.725 12.3757 107.203 11.969 106.868 11.4884C106.532 11.0078 106.346 10.4164 106.346 9.75092C106.346 8.67883 106.831 7.79158 107.8 7.08918C108.769 6.38678 110.037 6.01709 111.529 6.01709C113.02 6.01709 114.512 6.38678 115.481 7.12615C116.003 7.5328 116.414 7.97642 116.637 8.53095L115.22 9.34426C115.071 8.86367 114.736 8.45702 114.251 8.08733C113.542 7.56977 112.61 7.31099 111.492 7.31099C110.373 7.31099 109.553 7.5328 108.919 7.97642C108.247 8.42005 107.949 9.01154 107.949 9.71395C107.949 10.4164 108.21 10.9339 108.769 11.3036C109.329 11.6733 110.298 12.006 111.753 12.3387C113.207 12.6714 114.251 12.9672 114.959 13.3369C115.668 13.7066 116.19 14.1132 116.563 14.6308C116.936 15.1483 117.085 15.7398 117.085 16.4422C117.085 17.5883 116.563 18.5125 115.593 19.2149C114.586 19.9173 113.281 20.25 111.641 20.25C110 20.25 108.508 19.8803 107.464 19.104C106.905 18.6973 106.495 18.2537 106.234 17.7361L107.651 16.9228C107.837 17.4773 108.21 17.884 108.695 18.2537C109.441 18.7343 110.41 18.9931 111.641 18.9931C112.871 18.9931 113.692 18.7712 114.4 18.2907C115.108 17.8101 115.444 17.1816 115.444 16.4792Z" fill="black"/>
    <path d="M152.359 16.4792C152.359 15.7398 152.024 15.1114 151.39 14.6677C150.756 14.2241 149.749 13.8544 148.444 13.5956C147.139 13.3369 146.132 13.0411 145.386 12.7084C144.641 12.3757 144.119 11.969 143.783 11.4884C143.447 11.0078 143.261 10.4164 143.261 9.75092C143.261 8.67883 143.746 7.79158 144.715 7.08918C145.685 6.38678 146.953 6.01709 148.444 6.01709C149.936 6.01709 151.427 6.38678 152.397 7.12615C152.919 7.5328 153.329 7.97642 153.553 8.53095L152.136 9.34426C151.986 8.86367 151.651 8.45702 151.166 8.08733C150.458 7.56977 149.525 7.31099 148.407 7.31099C147.288 7.31099 146.468 7.5328 145.834 7.97642C145.163 8.42005 144.864 9.01154 144.864 9.71395C144.864 10.4164 145.125 10.9339 145.685 11.3036C146.244 11.6733 147.214 12.006 148.668 12.3387C150.122 12.6714 151.166 12.9672 151.875 13.3369C152.583 13.7066 153.105 14.1132 153.478 14.6308C153.851 15.1483 154 15.7398 154 16.4422C154 17.5883 153.478 18.5125 152.508 19.2149C151.502 19.9173 150.197 20.25 148.556 20.25C146.915 20.25 145.424 19.8803 144.38 19.104C143.82 18.6973 143.41 18.2537 143.149 17.7361L144.566 16.9228C144.753 17.4773 145.125 17.884 145.61 18.2537C146.356 18.7343 147.325 18.9931 148.556 18.9931C149.786 18.9931 150.607 18.7712 151.315 18.2907C152.024 17.8101 152.359 17.1816 152.359 16.4792Z" fill="black"/>
    <path d="M122.081 12.9302L120.329 14.5938V19.8064H118.8V0.397888H120.329V12.8193L121.783 11.2667L127.041 6.12802H128.98L123.125 11.8951L129.464 19.8064H127.637L122.081 12.9302Z" fill="black"/>
    <path d="M130.732 2.17236C130.732 1.87661 130.807 1.6548 131.03 1.43299C131.254 1.21117 131.478 1.13724 131.776 1.13724C132.075 1.13724 132.373 1.24814 132.559 1.43299C132.746 1.61783 132.858 1.87661 132.858 2.17236C132.858 2.46811 132.746 2.68992 132.559 2.87476C132.373 3.09657 132.112 3.20748 131.776 3.20748C131.441 3.20748 131.217 3.09657 131.03 2.91173C130.844 2.72689 130.732 2.46811 130.732 2.17236ZM132.522 19.8064H130.993V6.128H132.522V19.8064Z" fill="black"/>
    <path d="M136.885 19.8064H135.356V0.397888H136.885V19.8064Z" fill="black"/>
    <path d="M141.247 19.8064H139.719V0.397888H141.247V19.8064Z" fill="black"/>
    <path d="M19.7627 19.7694V0.323944H23.3796V7.49585C24.0508 6.4977 25.7288 5.9062 27.5186 5.9062C30.5017 5.9062 32.8135 8.19825 32.8135 11.6363V19.7694H29.2339V12.043C29.2339 10.3424 28.0407 9.23337 26.4746 9.23337C24.9085 9.23337 23.3796 10.1576 23.3796 11.1188V19.7694H19.7627Z" fill="black"/>
    <path d="M48.9966 6.16498V19.5476L47.3186 19.9173C46.7593 19.4737 46.2373 18.6604 46.0508 18.0319C45.2305 19.2149 43.8881 20.0282 41.3525 20.0282C38.8169 20.0282 35.5729 17.958 35.5729 14.335V6.16498H39.1525V13.8544C39.1525 15.518 40.4576 16.701 42.061 16.701C43.6644 16.701 45.3424 15.7029 45.3424 14.8156V6.16498H48.9966Z" fill="black"/>
    <path d="M51.7932 6.38679L53.4339 6.01711C53.9932 6.4977 54.3661 7.42191 54.7017 7.86554C55.2983 6.94132 56.6407 5.86923 58.9525 5.86923C61.2644 5.86923 62.7186 7.0892 63.278 8.19825C63.7254 7.0892 65.8508 5.86923 68.2746 5.86923C70.6983 5.86923 73.7186 7.9025 73.7186 11.5994V19.7694H70.2508V12.043C70.2508 10.3424 69.0203 9.23337 67.4169 9.23337C65.8136 9.23337 65.0305 9.7879 64.583 10.6751V19.7694H61.1152V12.043C61.1152 10.3424 60.0339 9.23337 58.4305 9.23337C56.8271 9.23337 55.3356 10.1576 55.3356 11.1188V19.7694H51.8305V6.38679H51.7932Z" fill="black"/>
    <path d="M84.3085 10.9709C84.3085 9.71395 83.6001 9.04851 81.8102 9.04851C80.0204 9.04851 79.4611 9.93576 78.8645 10.7121L76.6645 8.56792C77.0746 7.45886 79.1255 5.83224 81.8102 5.83224C85.7628 5.83224 87.8509 7.34796 87.8509 11.7842V16.5162C87.8509 17.1816 88.4848 17.7361 89.417 17.7361L88.895 19.9173C87.1797 19.9173 86.0238 19.2149 85.6136 18.3646C84.9424 19.2518 83.7492 20.0282 81.4373 20.0282C77.4848 20.0282 75.9187 18.2537 75.9187 15.6289C75.9187 10.7491 82.7797 11.7102 84.3085 10.9709ZM84.3085 15.481V13.5587C82.3323 14.0393 79.5729 13.5587 79.5729 15.6659C79.5729 17.7731 79.9831 16.8489 81.6984 16.8489C83.4136 16.8489 83.8611 16.5162 84.3085 15.481Z" fill="black"/>
    <path d="M90.7593 19.7694V6.38679L92.4372 6.01711C92.9966 6.46073 93.4813 7.23707 93.705 7.86554C94.6 6.79345 95.7932 5.86923 98.2542 5.86923C100.715 5.86923 104.369 7.93947 104.369 11.5994V19.7324H100.753V12.043C100.753 10.4164 99.3356 9.23337 97.7695 9.23337C96.2034 9.23337 94.4135 10.1576 94.4135 11.1188V19.7694H90.7593Z" fill="black"/>
    <path d="M0 0.25H8.05424V8.23521H0V0.25Z" fill="#F24806"/>
    <path d="M8.0542 8.2352H14.6169V14.7417H8.0542V8.2352Z" fill="#65D5FC"/>
    <path d="M2.9458 14.7417H8.05428V19.8064H2.9458V14.7417Z" fill="#090E28"/>
  </g>
  <defs>
    <clipPath id="clip0_4_1111">
      <rect width="154" height="20" fill="white" transform="translate(0 0.25)"/>
    </clipPath>
  </defs>
</svg>
