<svg width="600" height="600" viewBox="0 0 600 600" fill="none" xmlns="http://www.w3.org/2000/svg">
<g clip-path="url(#clip0_11296_19786)">
<path d="M600 600H0V0H600V600ZM346 259.999C356.6 259.999 357.899 262.7 357.899 275.899H357.8V391.999C357.8 410.599 349.2 418.699 336.8 418.699C330.4 418.699 326.6 417.099 322 414.1L319.6 419.199C324.7 423.499 334.4 427.299 349 427.299C377.3 427.299 400.5 412.399 400.5 377.899V254.299H346V259.999ZM196.5 251.6C179.5 251.6 165.5 263.199 160.1 274.799V254.299H105.6V259.999C116.4 259.999 117.5 262.699 117.5 275.899V351.699C117.5 364.899 116.4 367.6 105.6 367.6V373.299H172V367.6C161.4 367.6 160.1 364.899 160.1 351.699V281.499C163.4 274.199 168.999 270.699 174.699 270.699C184.899 270.699 192.199 277.699 192.199 295.799V351.699C192.199 364.899 191.1 367.6 180.3 367.6V373.299H246.699V367.6C235.9 367.6 234.8 364.899 234.8 351.699V290.699C234.8 269.099 221.3 251.6 196.5 251.6ZM264 259.999C274.8 259.999 275.899 262.7 275.899 275.899V351.699C275.899 364.899 274.8 367.6 264 367.6V373.299H330.399V367.6C319.8 367.6 318.5 364.899 318.5 351.699V254.299H264V259.999ZM428 259.999C438.8 259.999 439.899 262.7 439.899 275.899V351.699C439.899 364.899 438.8 367.6 428 367.6V373.299H494.399V367.6C483.8 367.6 482.5 364.899 482.5 351.699V254.299H428V259.999ZM297.199 172.699C284.552 172.699 274.3 182.952 274.3 195.6C274.3 208.247 284.552 218.499 297.199 218.499C309.846 218.499 320.099 208.247 320.1 195.6C320.1 182.952 309.847 172.699 297.199 172.699ZM379.199 172.699C366.552 172.699 356.3 182.952 356.3 195.6C356.3 208.247 366.552 218.499 379.199 218.499C391.846 218.499 402.099 208.247 402.1 195.6C402.1 182.952 391.847 172.699 379.199 172.699ZM461.199 172.699C448.552 172.699 438.3 182.952 438.3 195.6C438.3 208.247 448.552 218.499 461.199 218.499C473.846 218.499 484.099 208.247 484.1 195.6C484.1 182.952 473.847 172.699 461.199 172.699Z" fill="black"/>
</g>
<defs>
<clipPath id="clip0_11296_19786">
<rect width="600" height="600" fill="white"/>
</clipPath>
</defs>
</svg>
