<svg width="420" height="595" viewBox="0 0 420 595" fill="none" xmlns="http://www.w3.org/2000/svg">
<g clip-path="url(#clip0_8027_2530)">
<rect width="420" height="595" fill="white"/>
<path d="M242.776 58.8772H231.898V69.7544H242.776V58.8772Z" fill="#FE9C1A"/>
<path d="M177.514 69.7544C183.521 69.7544 188.391 64.8845 188.391 58.8772C188.391 52.8699 183.521 48 177.514 48C171.507 48 166.637 52.8699 166.637 58.8772C166.637 64.8845 171.507 69.7544 177.514 69.7544Z" fill="#E2F78C"/>
<path d="M199.268 69.7544C205.275 69.7544 210.145 64.8845 210.145 58.8772C210.145 52.8699 205.275 48 199.268 48C193.261 48 188.391 52.8699 188.391 58.8772C188.391 64.8845 193.261 69.7544 199.268 69.7544Z" fill="#FFC3DF"/>
<path d="M177.514 48H166.637V69.7544H177.514V48Z" fill="#418B5C"/>
<path d="M210.145 48H188.391V58.8772H210.145V48Z" fill="#E14322"/>
<path d="M253.656 48V58.877H221.024C218.021 58.8769 215.586 56.4421 215.586 53.4385C215.586 50.4349 218.021 48.0001 221.024 48H253.656Z" fill="#1C91FF"/>
<path fill-rule="evenodd" clip-rule="evenodd" d="M210.145 69.7544V58.8772H221.022C224.025 58.8772 226.46 61.3121 226.46 64.3158C226.46 67.3195 224.025 69.7544 221.022 69.7544H210.145Z" fill="#9FDBFF"/>
<path d="M77.0124 155.24V131.36H68.3724V126.84H90.8124V131.36H82.2124V155.24H77.0124ZM90.9091 155.24V126.84H96.0291V138.76H95.3891C95.6025 137.533 96.0291 136.533 96.6691 135.76C97.3091 134.96 98.0958 134.373 99.0291 134C99.9625 133.6 100.989 133.4 102.109 133.4C103.682 133.4 105.002 133.746 106.069 134.44C107.162 135.106 107.976 136.053 108.509 137.28C109.069 138.506 109.349 139.92 109.349 141.52V155.24H104.229V142.76C104.229 141.026 103.936 139.733 103.349 138.88C102.762 138 101.842 137.56 100.589 137.56C99.2025 137.56 98.0958 138.013 97.2691 138.92C96.4425 139.826 96.0291 141.146 96.0291 142.88V155.24H90.9091ZM121.381 155.72C119.247 155.72 117.394 155.266 115.821 154.36C114.247 153.426 113.034 152.12 112.181 150.44C111.327 148.76 110.901 146.8 110.901 144.56C110.901 142.32 111.327 140.373 112.181 138.72C113.034 137.04 114.234 135.733 115.781 134.8C117.354 133.866 119.181 133.4 121.261 133.4C123.287 133.4 125.061 133.853 126.581 134.76C128.127 135.666 129.314 136.973 130.141 138.68C130.967 140.386 131.381 142.44 131.381 144.84V146H116.221C116.327 147.866 116.834 149.28 117.741 150.24C118.674 151.173 119.901 151.64 121.421 151.64C122.567 151.64 123.514 151.386 124.261 150.88C125.034 150.346 125.567 149.613 125.861 148.68L131.101 149C130.514 151.08 129.354 152.72 127.621 153.92C125.914 155.12 123.834 155.72 121.381 155.72ZM116.221 142.56H126.101C125.994 140.826 125.501 139.546 124.621 138.72C123.741 137.866 122.621 137.44 121.261 137.44C119.901 137.44 118.767 137.88 117.861 138.76C116.981 139.64 116.434 140.906 116.221 142.56ZM138.618 155.24L148.858 126.84H155.218L165.458 155.24H160.018L157.658 148.52H146.418L144.058 155.24H138.618ZM147.938 144.08H156.138L152.058 132.079L147.938 144.08ZM166.196 155.24V126.84H171.396V155.24H166.196ZM173.873 145.72V141.4H187.473V145.72H173.873ZM189.948 155.24V126.84H208.948V131.36H192.308L195.148 128.44V141.48L192.308 139.12H208.228V143.6H192.308L195.148 141.24V155.24H189.948ZM210.623 155.24V133.88H215.743V155.24H210.623ZM210.543 131.04V126.48H215.863V131.04H210.543ZM219.393 155.24V133.88H224.193L224.393 139.8L223.953 139.72C224.273 137.666 224.873 136.186 225.753 135.28C226.66 134.346 227.887 133.88 229.433 133.88H231.393V138.28H229.393C228.3 138.28 227.393 138.44 226.673 138.76C225.953 139.08 225.407 139.586 225.033 140.28C224.687 140.946 224.513 141.826 224.513 142.92V155.24H219.393ZM240.555 155.72C238.448 155.72 236.675 155.413 235.235 154.8C233.821 154.186 232.728 153.333 231.955 152.24C231.181 151.146 230.741 149.906 230.635 148.52L235.875 148.28C236.061 149.4 236.528 150.266 237.275 150.88C238.021 151.493 239.128 151.8 240.595 151.8C241.795 151.8 242.728 151.613 243.395 151.24C244.088 150.84 244.435 150.226 244.435 149.4C244.435 148.92 244.315 148.52 244.075 148.2C243.835 147.88 243.381 147.6 242.715 147.36C242.048 147.12 241.061 146.88 239.755 146.64C237.568 146.266 235.848 145.813 234.595 145.28C233.341 144.72 232.448 144.026 231.915 143.2C231.408 142.373 231.155 141.346 231.155 140.12C231.155 138.12 231.915 136.506 233.435 135.28C234.981 134.026 237.235 133.4 240.195 133.4C242.115 133.4 243.728 133.72 245.035 134.36C246.341 134.973 247.355 135.826 248.075 136.92C248.821 137.986 249.288 139.213 249.475 140.6L244.315 140.84C244.181 140.12 243.941 139.493 243.595 138.96C243.248 138.426 242.781 138.026 242.195 137.76C241.608 137.466 240.915 137.32 240.115 137.32C238.915 137.32 238.008 137.56 237.395 138.04C236.781 138.52 236.475 139.16 236.475 139.96C236.475 140.52 236.608 140.986 236.875 141.36C237.168 141.733 237.635 142.04 238.275 142.28C238.915 142.493 239.768 142.693 240.835 142.88C243.075 143.226 244.835 143.68 246.115 144.24C247.421 144.773 248.341 145.466 248.875 146.32C249.435 147.146 249.715 148.146 249.715 149.32C249.715 150.68 249.328 151.84 248.555 152.8C247.808 153.76 246.741 154.493 245.355 155C243.995 155.48 242.395 155.72 240.555 155.72ZM259.244 155.24C257.111 155.24 255.537 154.746 254.524 153.76C253.537 152.773 253.044 151.226 253.044 149.12V128.88H258.164V148.64C258.164 149.626 258.377 150.32 258.804 150.72C259.231 151.093 259.897 151.28 260.804 151.28H263.804V155.24H259.244ZM249.684 137.84V133.88H263.804V137.84H249.684ZM284.519 155.88C281.826 155.88 279.506 155.253 277.559 154C275.612 152.72 274.119 150.973 273.079 148.76C272.066 146.546 271.559 143.986 271.559 141.08C271.559 138.226 272.079 135.68 273.119 133.44C274.186 131.2 275.706 129.44 277.679 128.16C279.652 126.853 282.026 126.2 284.799 126.2C287.199 126.2 289.212 126.613 290.839 127.439C292.492 128.266 293.812 129.413 294.799 130.88C295.786 132.346 296.479 134.04 296.879 135.96L291.439 136.24C291.146 134.56 290.479 133.226 289.439 132.24C288.426 131.226 286.892 130.72 284.839 130.72C283.026 130.72 281.532 131.186 280.359 132.12C279.212 133.053 278.346 134.306 277.759 135.88C277.199 137.426 276.919 139.16 276.919 141.08C276.919 143.053 277.199 144.813 277.759 146.36C278.319 147.906 279.186 149.133 280.359 150.04C281.559 150.92 283.066 151.36 284.879 151.36C286.292 151.36 287.506 151.066 288.519 150.48C289.532 149.893 290.332 149.093 290.919 148.08C291.506 147.04 291.826 145.893 291.879 144.64H284.879V140.6H296.959V155.24H293.599L293.279 149L293.919 149.4C293.626 150.68 293.026 151.813 292.119 152.8C291.239 153.76 290.132 154.52 288.799 155.08C287.492 155.613 286.066 155.88 284.519 155.88ZM304.877 155.24V131.36H296.237V126.84H318.677V131.36H310.077V155.24H304.877ZM319.174 155.24V126.84H326.174L334.014 148.84L341.854 126.84H348.854V155.24H343.654V135.64L336.494 155.2H331.534L324.374 135.64V155.24H319.174Z" fill="black"/>
<path d="M130.264 194.231C129.816 194.231 129.592 194.071 129.592 193.751C129.592 193.399 129.912 193.175 130.552 193.079L131.512 192.935C132.216 192.839 132.696 192.679 132.952 192.455C133.24 192.199 133.448 191.735 133.576 191.063L140.104 162.839C140.232 162.295 140.248 161.879 140.152 161.591C140.056 161.303 139.64 161.095 138.904 160.967L137.944 160.775C137.528 160.679 137.32 160.503 137.32 160.247C137.32 159.863 137.608 159.671 138.184 159.671H147.544C150.2 159.671 152.232 160.391 153.64 161.831C155.048 163.271 155.752 165.079 155.752 167.255C155.752 169.271 155.224 171.143 154.168 172.871C153.144 174.567 151.704 175.943 149.848 176.999C148.024 178.055 145.88 178.583 143.416 178.583H140.584C140.072 178.583 139.736 178.855 139.576 179.399L136.888 190.871C136.728 191.575 136.76 192.055 136.984 192.311C137.24 192.567 137.768 192.743 138.568 192.839L140.872 193.127C141.16 193.159 141.304 193.319 141.304 193.607C141.304 194.023 141.016 194.231 140.44 194.231H130.264ZM140.68 174.743C140.488 175.575 140.568 176.231 140.92 176.711C141.304 177.159 142.088 177.383 143.272 177.383C144.872 177.383 146.232 177.047 147.352 176.375C148.504 175.703 149.432 174.839 150.136 173.783C150.872 172.695 151.4 171.543 151.72 170.327C152.072 169.079 152.248 167.895 152.248 166.775C152.248 165.015 151.784 163.591 150.856 162.503C149.928 161.415 148.568 160.871 146.776 160.871C144.824 160.871 143.704 161.511 143.416 162.791L140.68 174.743ZM157.372 194.711C156.316 194.711 155.564 194.327 155.116 193.559C154.668 192.759 154.652 191.463 155.068 189.671L161.164 163.511C161.324 162.935 161.324 162.535 161.164 162.311C161.036 162.087 160.748 161.959 160.3 161.927L158.86 161.783C158.38 161.751 158.172 161.543 158.236 161.159C158.3 160.871 158.524 160.695 158.908 160.631C160.06 160.439 161.084 160.215 161.98 159.959C162.876 159.671 163.596 159.303 164.14 158.855C164.396 158.663 164.636 158.567 164.86 158.567C165.244 158.567 165.388 158.807 165.292 159.287L158.188 189.719C158.028 190.423 157.996 190.983 158.092 191.399C158.22 191.783 158.524 191.975 159.004 191.975C159.58 191.975 160.204 191.559 160.876 190.727C161.58 189.863 162.364 188.247 163.228 185.879C163.356 185.463 163.58 185.255 163.9 185.255C164.38 185.255 164.508 185.543 164.284 186.119C163.612 188.295 162.86 190.023 162.028 191.303C161.228 192.551 160.428 193.431 159.628 193.943C158.828 194.455 158.076 194.711 157.372 194.711ZM169.624 194.663C168.472 194.663 167.576 194.167 166.936 193.175C166.296 192.183 165.976 190.727 165.976 188.807C165.976 186.983 166.232 185.159 166.744 183.335C167.256 181.479 167.96 179.719 168.856 178.055C169.752 176.391 170.76 174.919 171.88 173.639C173.032 172.359 174.232 171.351 175.48 170.615C176.76 169.847 178.024 169.463 179.272 169.463C179.88 169.463 180.456 169.591 181 169.847C181.544 170.071 181.992 170.439 182.344 170.951C182.536 171.239 182.728 171.383 182.92 171.383C183.112 171.383 183.304 171.239 183.496 170.951C183.848 170.439 184.136 170.119 184.36 169.991C184.584 169.831 184.792 169.751 184.984 169.751C185.4 169.751 185.56 169.975 185.464 170.423L181.192 188.807C180.712 190.887 181.032 191.927 182.152 191.927C182.888 191.927 183.544 191.431 184.12 190.439C184.728 189.447 185.336 187.911 185.944 185.831C186.04 185.479 186.248 185.303 186.568 185.303C186.792 185.303 186.936 185.399 187 185.591C187.064 185.783 187.064 186.007 187 186.263C186.392 189.271 185.576 191.431 184.552 192.743C183.528 194.023 182.296 194.663 180.856 194.663C179.608 194.663 178.712 194.135 178.168 193.079C177.656 192.023 177.608 190.583 178.024 188.759L178.648 186.119C178.712 185.895 178.664 185.767 178.504 185.735C178.376 185.703 178.264 185.783 178.168 185.975C176.408 189.207 174.84 191.463 173.464 192.743C172.12 194.023 170.84 194.663 169.624 194.663ZM170.824 192.215C171.592 192.215 172.44 191.751 173.368 190.823C174.296 189.895 175.208 188.695 176.104 187.223C177.032 185.751 177.88 184.167 178.648 182.471C179.416 180.775 180.024 179.143 180.472 177.575C180.952 176.007 181.192 174.679 181.192 173.591C181.192 171.639 180.504 170.663 179.128 170.663C178.296 170.663 177.416 171.047 176.488 171.815C175.56 172.551 174.664 173.559 173.8 174.839C172.968 176.119 172.2 177.575 171.496 179.207C170.824 180.807 170.28 182.487 169.864 184.247C169.448 185.975 169.24 187.671 169.24 189.335C169.24 190.455 169.368 191.223 169.624 191.639C169.912 192.023 170.312 192.215 170.824 192.215ZM185.431 204.551C184.215 204.551 183.271 204.231 182.599 203.591C181.927 202.983 181.591 202.231 181.591 201.335C181.591 200.663 181.767 200.151 182.119 199.799C182.471 199.479 182.855 199.319 183.271 199.319C183.879 199.319 184.311 199.479 184.567 199.799C184.823 200.119 185.015 200.487 185.143 200.903C185.271 201.351 185.479 201.735 185.767 202.055C186.023 202.375 186.455 202.535 187.063 202.535C188.247 202.535 189.415 202.055 190.567 201.095C191.719 200.167 192.663 198.871 193.399 197.207C194.135 195.575 194.455 193.735 194.359 191.687L193.639 174.455C193.607 173.623 193.463 173.047 193.207 172.727C192.951 172.375 192.631 172.199 192.247 172.199C191.543 172.199 190.871 172.631 190.231 173.495C189.591 174.327 189.063 175.927 188.647 178.295C188.551 178.711 188.343 178.919 188.023 178.919C187.575 178.919 187.399 178.631 187.495 178.055C187.879 175.847 188.407 174.119 189.079 172.871C189.783 171.623 190.519 170.743 191.287 170.231C192.087 169.719 192.823 169.463 193.495 169.463C194.487 169.463 195.271 169.815 195.847 170.519C196.423 171.191 196.743 172.359 196.807 174.023L197.479 192.455C197.479 192.679 197.543 192.823 197.671 192.887C197.831 192.919 197.975 192.839 198.103 192.647C199.223 191.079 200.231 189.463 201.127 187.799C202.055 186.103 202.791 184.439 203.335 182.807C203.879 181.175 204.151 179.671 204.151 178.295C204.151 176.951 204.007 175.895 203.719 175.127C203.431 174.327 203.127 173.655 202.807 173.111C202.519 172.567 202.375 171.975 202.375 171.335C202.375 170.087 202.919 169.463 204.007 169.463C205.543 169.463 206.311 171.159 206.311 174.551C206.311 176.407 205.991 178.439 205.351 180.647C204.711 182.823 203.831 185.047 202.711 187.319C201.623 189.559 200.359 191.703 198.919 193.751C197.511 195.799 196.023 197.639 194.455 199.271C192.919 200.903 191.367 202.183 189.799 203.111C188.263 204.071 186.807 204.551 185.431 204.551ZM213.317 194.663C212.229 194.663 211.253 194.375 210.389 193.799C209.557 193.191 208.965 192.295 208.613 191.111C208.293 189.895 208.341 188.391 208.757 186.599L214.133 163.511C214.293 162.935 214.293 162.535 214.133 162.311C214.005 162.087 213.717 161.959 213.269 161.927L211.829 161.783C211.349 161.751 211.141 161.543 211.205 161.159C211.269 160.871 211.493 160.695 211.877 160.631C213.029 160.439 214.053 160.215 214.949 159.959C215.845 159.671 216.565 159.303 217.109 158.855C217.365 158.663 217.605 158.567 217.829 158.567C218.213 158.567 218.357 158.807 218.261 159.287L213.893 178.151C213.861 178.375 213.909 178.503 214.037 178.535C214.165 178.567 214.277 178.487 214.373 178.295C216.133 174.935 217.701 172.631 219.077 171.383C220.485 170.103 221.797 169.463 223.013 169.463C224.197 169.463 225.125 169.959 225.797 170.951C226.501 171.943 226.853 173.399 226.853 175.319C226.853 177.143 226.581 178.983 226.037 180.839C225.525 182.663 224.805 184.407 223.877 186.071C222.981 187.735 221.941 189.207 220.757 190.487C219.605 191.767 218.389 192.791 217.109 193.559C215.829 194.295 214.565 194.663 213.317 194.663ZM213.461 193.463C214.293 193.463 215.173 193.095 216.101 192.359C217.029 191.591 217.925 190.583 218.789 189.335C219.685 188.055 220.485 186.631 221.189 185.063C221.893 183.463 222.453 181.831 222.869 180.167C223.285 178.471 223.493 176.839 223.493 175.271C223.493 174.055 223.365 173.207 223.109 172.727C222.853 172.215 222.405 171.959 221.765 171.959C221.061 171.959 220.261 172.391 219.365 173.255C218.469 174.119 217.557 175.271 216.629 176.711C215.701 178.119 214.837 179.655 214.037 181.319C213.237 182.983 212.597 184.631 212.117 186.263C211.637 187.863 211.397 189.287 211.397 190.535C211.397 192.487 212.085 193.463 213.461 193.463ZM234.853 194.663C232.869 194.663 231.301 193.847 230.149 192.215C228.997 190.551 228.421 188.311 228.421 185.495C228.421 183.415 228.757 181.415 229.429 179.495C230.101 177.575 230.981 175.863 232.069 174.359C233.189 172.855 234.421 171.671 235.765 170.807C237.141 169.911 238.517 169.463 239.893 169.463C241.877 169.463 243.445 170.279 244.597 171.911C245.749 173.543 246.325 175.783 246.325 178.631C246.325 180.711 245.989 182.711 245.317 184.631C244.645 186.551 243.749 188.263 242.629 189.767C241.541 191.271 240.309 192.471 238.933 193.367C237.589 194.231 236.229 194.663 234.853 194.663ZM234.757 193.511C235.781 193.511 236.773 193.015 237.733 192.023C238.725 191.031 239.621 189.719 240.421 188.087C241.221 186.455 241.861 184.647 242.341 182.663C242.821 180.647 243.061 178.631 243.061 176.615C243.061 172.615 242.021 170.615 239.941 170.615C238.949 170.615 237.957 171.111 236.965 172.103C235.973 173.063 235.077 174.359 234.277 175.991C233.509 177.623 232.885 179.447 232.405 181.463C231.925 183.447 231.685 185.447 231.685 187.463C231.685 191.495 232.709 193.511 234.757 193.511ZM254.728 194.663C252.744 194.663 251.176 193.847 250.024 192.215C248.872 190.551 248.296 188.311 248.296 185.495C248.296 183.415 248.632 181.415 249.304 179.495C249.976 177.575 250.856 175.863 251.944 174.359C253.064 172.855 254.296 171.671 255.64 170.807C257.016 169.911 258.392 169.463 259.768 169.463C261.752 169.463 263.32 170.279 264.472 171.911C265.624 173.543 266.2 175.783 266.2 178.631C266.2 180.711 265.864 182.711 265.192 184.631C264.52 186.551 263.624 188.263 262.504 189.767C261.416 191.271 260.184 192.471 258.808 193.367C257.464 194.231 256.104 194.663 254.728 194.663ZM254.632 193.511C255.656 193.511 256.648 193.015 257.608 192.023C258.6 191.031 259.496 189.719 260.296 188.087C261.096 186.455 261.736 184.647 262.216 182.663C262.696 180.647 262.936 178.631 262.936 176.615C262.936 172.615 261.896 170.615 259.816 170.615C258.824 170.615 257.832 171.111 256.84 172.103C255.848 173.063 254.952 174.359 254.152 175.991C253.384 177.623 252.76 179.447 252.28 181.463C251.8 183.447 251.56 185.447 251.56 187.463C251.56 191.495 252.584 193.511 254.632 193.511ZM282.475 194.663C280.843 194.663 279.515 193.335 278.491 190.679L275.851 183.719C275.531 182.951 275.131 182.567 274.651 182.567C274.171 182.567 273.755 182.967 273.403 183.767C273.083 184.471 272.731 185.431 272.347 186.647C271.995 187.831 271.659 189.127 271.339 190.535L270.619 193.703C270.523 194.055 270.299 194.231 269.947 194.231H268.075C267.627 194.231 267.451 194.023 267.547 193.607L274.555 163.511C274.683 162.967 274.683 162.583 274.555 162.359C274.427 162.103 274.139 161.959 273.691 161.927L272.251 161.783C271.771 161.719 271.563 161.511 271.627 161.159C271.691 160.871 271.915 160.695 272.299 160.631C273.675 160.407 274.779 160.151 275.611 159.863C276.443 159.575 277.083 159.239 277.531 158.855C277.787 158.663 278.011 158.567 278.203 158.567C278.619 158.567 278.779 158.807 278.683 159.287L274.219 178.295C274.187 178.519 274.235 178.647 274.363 178.679C274.491 178.711 274.603 178.631 274.699 178.439L276.283 175.607C278.587 171.511 281.179 169.463 284.059 169.463C285.147 169.463 286.011 169.751 286.651 170.327C287.291 170.903 287.611 171.687 287.611 172.679C287.611 174.247 286.843 175.815 285.307 177.383C283.803 178.951 281.819 180.231 279.355 181.223C278.587 181.511 278.363 182.023 278.683 182.759L281.467 189.863C281.787 190.663 282.107 191.239 282.427 191.591C282.747 191.911 283.147 192.071 283.627 192.071C284.363 192.071 284.923 191.623 285.307 190.727C285.691 189.799 286.027 188.199 286.315 185.927C286.379 185.511 286.571 185.303 286.891 185.303C287.243 185.303 287.403 185.623 287.371 186.263C287.211 188.951 286.699 191.031 285.835 192.503C285.003 193.943 283.883 194.663 282.475 194.663ZM275.131 180.407C275.003 180.695 274.987 180.919 275.083 181.079C275.211 181.207 275.419 181.239 275.707 181.175C278.363 180.503 280.507 179.399 282.139 177.863C283.771 176.327 284.587 174.631 284.587 172.775C284.587 171.559 284.123 170.951 283.195 170.951C282.107 170.951 280.843 171.799 279.403 173.495C277.963 175.159 276.539 177.463 275.131 180.407Z" fill="#1C91FF"/>
<path d="M80.9716 234V224.06H82.4836V228.848L81.7556 228.316H87.8036L87.0756 228.848V224.06H88.5876V234H87.0756V229.156L87.8036 229.688H81.7556L82.4836 229.156V234H80.9716ZM93.2683 234.168C92.559 234.168 91.9383 234.009 91.4063 233.692C90.8743 233.375 90.4637 232.922 90.1743 232.334C89.885 231.746 89.7403 231.06 89.7403 230.276C89.7403 229.483 89.885 228.797 90.1743 228.218C90.4637 227.639 90.8743 227.191 91.4063 226.874C91.9383 226.547 92.559 226.384 93.2683 226.384C93.9777 226.384 94.5983 226.547 95.1303 226.874C95.6623 227.191 96.073 227.639 96.3623 228.218C96.6517 228.797 96.7963 229.483 96.7963 230.276C96.7963 231.06 96.6517 231.746 96.3623 232.334C96.073 232.922 95.6623 233.375 95.1303 233.692C94.5983 234.009 93.9777 234.168 93.2683 234.168ZM93.2683 232.88C93.903 232.88 94.393 232.651 94.7383 232.194C95.0837 231.727 95.2563 231.088 95.2563 230.276C95.2563 229.464 95.0837 228.829 94.7383 228.372C94.393 227.905 93.903 227.672 93.2683 227.672C92.643 227.672 92.153 227.905 91.7983 228.372C91.453 228.829 91.2803 229.464 91.2803 230.276C91.2803 231.088 91.453 231.727 91.7983 232.194C92.153 232.651 92.643 232.88 93.2683 232.88ZM99.0897 234L96.8217 226.552H98.3757L99.9717 232.376L101.61 226.552H103.01L104.648 232.376L106.258 226.552H107.812L105.544 234H103.878L102.31 228.68L100.742 234H99.0897ZM114.431 234C113.722 234 113.199 233.837 112.863 233.51C112.527 233.183 112.359 232.675 112.359 231.984V224.802H113.843V231.872C113.843 232.217 113.918 232.455 114.067 232.586C114.217 232.717 114.445 232.782 114.753 232.782H115.817V234H114.431ZM111.225 227.77V226.552H115.817V227.77H111.225ZM119.678 234.168C118.969 234.168 118.349 234.009 117.817 233.692C117.285 233.375 116.874 232.922 116.585 232.334C116.295 231.746 116.151 231.06 116.151 230.276C116.151 229.483 116.295 228.797 116.585 228.218C116.874 227.639 117.285 227.191 117.817 226.874C118.349 226.547 118.969 226.384 119.678 226.384C120.388 226.384 121.009 226.547 121.541 226.874C122.073 227.191 122.483 227.639 122.773 228.218C123.062 228.797 123.207 229.483 123.207 230.276C123.207 231.06 123.062 231.746 122.773 232.334C122.483 232.922 122.073 233.375 121.541 233.692C121.009 234.009 120.388 234.168 119.678 234.168ZM119.678 232.88C120.313 232.88 120.803 232.651 121.149 232.194C121.494 231.727 121.667 231.088 121.667 230.276C121.667 229.464 121.494 228.829 121.149 228.372C120.803 227.905 120.313 227.672 119.678 227.672C119.053 227.672 118.563 227.905 118.209 228.372C117.863 228.829 117.691 229.464 117.691 230.276C117.691 231.088 117.863 231.727 118.209 232.194C118.563 232.651 119.053 232.88 119.678 232.88ZM130.117 234.168C129.417 234.168 128.825 234.061 128.339 233.846C127.863 233.631 127.495 233.337 127.233 232.964C126.972 232.581 126.823 232.143 126.785 231.648L128.311 231.578C128.386 231.989 128.563 232.315 128.843 232.558C129.123 232.801 129.548 232.922 130.117 232.922C130.584 232.922 130.953 232.847 131.223 232.698C131.494 232.549 131.629 232.311 131.629 231.984C131.629 231.807 131.583 231.657 131.489 231.536C131.405 231.405 131.237 231.298 130.985 231.214C130.733 231.121 130.36 231.032 129.865 230.948C129.128 230.808 128.549 230.645 128.129 230.458C127.709 230.271 127.411 230.033 127.233 229.744C127.056 229.455 126.967 229.105 126.967 228.694C126.967 228.013 127.219 227.457 127.723 227.028C128.237 226.599 128.974 226.384 129.935 226.384C130.579 226.384 131.121 226.496 131.559 226.72C131.998 226.935 132.339 227.229 132.581 227.602C132.833 227.966 132.992 228.377 133.057 228.834L131.531 228.918C131.485 228.657 131.391 228.433 131.251 228.246C131.121 228.05 130.943 227.901 130.719 227.798C130.495 227.686 130.229 227.63 129.921 227.63C129.445 227.63 129.091 227.723 128.857 227.91C128.624 228.097 128.507 228.339 128.507 228.638C128.507 228.862 128.559 229.044 128.661 229.184C128.773 229.324 128.951 229.441 129.193 229.534C129.436 229.618 129.758 229.693 130.159 229.758C130.934 229.889 131.541 230.052 131.979 230.248C132.418 230.435 132.726 230.668 132.903 230.948C133.081 231.228 133.169 231.569 133.169 231.97C133.169 232.437 133.039 232.833 132.777 233.16C132.516 233.487 132.157 233.739 131.699 233.916C131.242 234.084 130.715 234.168 130.117 234.168ZM136.621 234.168C135.874 234.168 135.277 233.921 134.829 233.426C134.39 232.922 134.171 232.227 134.171 231.34V226.552H135.655V230.962C135.655 231.634 135.772 232.129 136.005 232.446C136.238 232.763 136.593 232.922 137.069 232.922C137.61 232.922 138.03 232.749 138.329 232.404C138.637 232.049 138.791 231.555 138.791 230.92V226.552H140.275V234H138.889L138.861 232.054L139.071 232.138C138.94 232.791 138.665 233.295 138.245 233.65C137.825 233.995 137.284 234.168 136.621 234.168ZM141.874 236.1V226.552H143.274L143.316 228.148L143.148 228.064C143.335 227.513 143.643 227.098 144.072 226.818C144.502 226.529 144.996 226.384 145.556 226.384C146.284 226.384 146.882 226.566 147.348 226.93C147.824 227.285 148.174 227.756 148.398 228.344C148.632 228.932 148.748 229.576 148.748 230.276C148.748 230.976 148.632 231.62 148.398 232.208C148.174 232.796 147.824 233.272 147.348 233.636C146.882 233.991 146.284 234.168 145.556 234.168C145.183 234.168 144.833 234.103 144.506 233.972C144.18 233.841 143.9 233.659 143.666 233.426C143.442 233.183 143.284 232.899 143.19 232.572L143.358 232.404V236.1H141.874ZM145.29 232.88C145.888 232.88 146.354 232.651 146.69 232.194C147.036 231.737 147.208 231.097 147.208 230.276C147.208 229.455 147.036 228.815 146.69 228.358C146.354 227.901 145.888 227.672 145.29 227.672C144.898 227.672 144.558 227.77 144.268 227.966C143.979 228.153 143.755 228.442 143.596 228.834C143.438 229.226 143.358 229.707 143.358 230.276C143.358 230.845 143.433 231.326 143.582 231.718C143.741 232.11 143.965 232.404 144.254 232.6C144.553 232.787 144.898 232.88 145.29 232.88ZM152.821 234.168C152.093 234.168 151.463 234.009 150.931 233.692C150.408 233.375 150.002 232.922 149.713 232.334C149.433 231.746 149.293 231.06 149.293 230.276C149.293 229.492 149.433 228.811 149.713 228.232C150.002 227.644 150.408 227.191 150.931 226.874C151.454 226.547 152.07 226.384 152.779 226.384C153.451 226.384 154.044 226.543 154.557 226.86C155.07 227.168 155.467 227.616 155.747 228.204C156.036 228.792 156.181 229.501 156.181 230.332V230.71H150.833C150.87 231.438 151.062 231.984 151.407 232.348C151.762 232.712 152.238 232.894 152.835 232.894C153.274 232.894 153.638 232.791 153.927 232.586C154.216 232.381 154.417 232.105 154.529 231.76L156.069 231.858C155.873 232.549 155.486 233.109 154.907 233.538C154.338 233.958 153.642 234.168 152.821 234.168ZM150.833 229.59H154.613C154.566 228.927 154.375 228.437 154.039 228.12C153.712 227.803 153.292 227.644 152.779 227.644C152.247 227.644 151.808 227.812 151.463 228.148C151.127 228.475 150.917 228.955 150.833 229.59ZM157.185 234V226.552H158.543L158.599 228.526L158.473 228.484C158.575 227.812 158.781 227.322 159.089 227.014C159.406 226.706 159.831 226.552 160.363 226.552H161.077V227.882H160.363C159.989 227.882 159.677 227.943 159.425 228.064C159.173 228.185 158.981 228.372 158.851 228.624C158.729 228.876 158.669 229.203 158.669 229.604V234H157.185ZM164.7 234.168C163.991 234.168 163.37 234.009 162.838 233.692C162.306 233.375 161.895 232.922 161.606 232.334C161.317 231.746 161.172 231.06 161.172 230.276C161.172 229.492 161.317 228.811 161.606 228.232C161.895 227.644 162.306 227.191 162.838 226.874C163.37 226.547 163.991 226.384 164.7 226.384C165.307 226.384 165.843 226.491 166.31 226.706C166.786 226.911 167.169 227.215 167.458 227.616C167.757 228.017 167.948 228.507 168.032 229.086L166.478 229.17C166.403 228.685 166.207 228.316 165.89 228.064C165.573 227.803 165.176 227.672 164.7 227.672C164.075 227.672 163.585 227.905 163.23 228.372C162.885 228.829 162.712 229.464 162.712 230.276C162.712 231.088 162.885 231.727 163.23 232.194C163.585 232.651 164.075 232.88 164.7 232.88C165.176 232.88 165.573 232.749 165.89 232.488C166.207 232.217 166.403 231.811 166.478 231.27L168.032 231.354C167.948 231.923 167.757 232.418 167.458 232.838C167.169 233.258 166.786 233.585 166.31 233.818C165.843 234.051 165.307 234.168 164.7 234.168ZM168.886 234V224.06H170.37V228.232L170.188 228.204C170.272 227.784 170.426 227.443 170.65 227.182C170.874 226.911 171.149 226.711 171.476 226.58C171.803 226.449 172.162 226.384 172.554 226.384C173.095 226.384 173.553 226.505 173.926 226.748C174.299 226.981 174.579 227.313 174.766 227.742C174.962 228.171 175.06 228.661 175.06 229.212V234H173.576V229.604C173.576 228.932 173.459 228.437 173.226 228.12C173.002 227.793 172.647 227.63 172.162 227.63C171.621 227.63 171.187 227.803 170.86 228.148C170.533 228.484 170.37 228.979 170.37 229.632V234H168.886ZM178.593 234.168C177.818 234.168 177.198 233.991 176.731 233.636C176.274 233.281 176.045 232.782 176.045 232.138C176.045 231.494 176.236 230.995 176.619 230.64C177.011 230.276 177.613 230.015 178.425 229.856L180.987 229.366C180.987 228.787 180.852 228.358 180.581 228.078C180.31 227.789 179.909 227.644 179.377 227.644C178.901 227.644 178.528 227.751 178.257 227.966C177.986 228.171 177.8 228.479 177.697 228.89L176.171 228.792C176.311 228.045 176.656 227.457 177.207 227.028C177.767 226.599 178.49 226.384 179.377 226.384C180.385 226.384 181.15 226.655 181.673 227.196C182.205 227.728 182.471 228.479 182.471 229.45V232.348C182.471 232.525 182.499 232.651 182.555 232.726C182.62 232.791 182.723 232.824 182.863 232.824H183.129V234C183.082 234.009 183.008 234.019 182.905 234.028C182.802 234.037 182.695 234.042 182.583 234.042C182.266 234.042 181.99 233.991 181.757 233.888C181.533 233.785 181.365 233.617 181.253 233.384C181.141 233.141 181.085 232.819 181.085 232.418L181.239 232.488C181.164 232.815 181.001 233.104 180.749 233.356C180.506 233.608 180.194 233.809 179.811 233.958C179.438 234.098 179.032 234.168 178.593 234.168ZM178.831 232.992C179.279 232.992 179.662 232.908 179.979 232.74C180.296 232.563 180.544 232.32 180.721 232.012C180.898 231.704 180.987 231.354 180.987 230.962V230.486L178.803 230.906C178.355 230.99 178.038 231.125 177.851 231.312C177.674 231.489 177.585 231.718 177.585 231.998C177.585 232.315 177.692 232.563 177.907 232.74C178.131 232.908 178.439 232.992 178.831 232.992ZM183.882 234V226.552H185.24L185.296 228.526L185.17 228.484C185.273 227.812 185.478 227.322 185.786 227.014C186.103 226.706 186.528 226.552 187.06 226.552H187.774V227.882H187.06C186.687 227.882 186.374 227.943 186.122 228.064C185.87 228.185 185.679 228.372 185.548 228.624C185.427 228.876 185.366 229.203 185.366 229.604V234H183.882ZM191.327 236.268C190.739 236.268 190.221 236.179 189.773 236.002C189.325 235.825 188.957 235.573 188.667 235.246C188.378 234.929 188.182 234.555 188.079 234.126L189.619 234.028C189.722 234.336 189.899 234.579 190.151 234.756C190.413 234.943 190.805 235.036 191.327 235.036C191.943 235.036 192.415 234.905 192.741 234.644C193.077 234.383 193.245 233.986 193.245 233.454V232.376C193.068 232.759 192.783 233.062 192.391 233.286C191.999 233.51 191.561 233.622 191.075 233.622C190.45 233.622 189.895 233.468 189.409 233.16C188.924 232.852 188.546 232.427 188.275 231.886C188.005 231.345 187.869 230.719 187.869 230.01C187.869 229.291 188 228.661 188.261 228.12C188.532 227.579 188.905 227.154 189.381 226.846C189.867 226.538 190.413 226.384 191.019 226.384C191.551 226.384 192.018 226.505 192.419 226.748C192.83 226.991 193.124 227.317 193.301 227.728V226.552H194.729V233.412C194.729 234.028 194.589 234.546 194.309 234.966C194.039 235.395 193.647 235.717 193.133 235.932C192.629 236.156 192.027 236.268 191.327 236.268ZM191.313 232.362C191.892 232.362 192.354 232.152 192.699 231.732C193.054 231.312 193.236 230.733 193.245 229.996C193.255 229.511 193.18 229.095 193.021 228.75C192.863 228.395 192.634 228.125 192.335 227.938C192.046 227.742 191.705 227.644 191.313 227.644C190.707 227.644 190.235 227.859 189.899 228.288C189.573 228.708 189.409 229.277 189.409 229.996C189.409 230.724 189.577 231.303 189.913 231.732C190.259 232.152 190.725 232.362 191.313 232.362ZM199.264 234.168C198.536 234.168 197.906 234.009 197.374 233.692C196.852 233.375 196.446 232.922 196.156 232.334C195.876 231.746 195.736 231.06 195.736 230.276C195.736 229.492 195.876 228.811 196.156 228.232C196.446 227.644 196.852 227.191 197.374 226.874C197.897 226.547 198.513 226.384 199.222 226.384C199.894 226.384 200.487 226.543 201 226.86C201.514 227.168 201.91 227.616 202.19 228.204C202.48 228.792 202.624 229.501 202.624 230.332V230.71H197.276C197.314 231.438 197.505 231.984 197.85 232.348C198.205 232.712 198.681 232.894 199.278 232.894C199.717 232.894 200.081 232.791 200.37 232.586C200.66 232.381 200.86 232.105 200.972 231.76L202.512 231.858C202.316 232.549 201.929 233.109 201.35 233.538C200.781 233.958 200.086 234.168 199.264 234.168ZM197.276 229.59H201.056C201.01 228.927 200.818 228.437 200.482 228.12C200.156 227.803 199.736 227.644 199.222 227.644C198.69 227.644 198.252 227.812 197.906 228.148C197.57 228.475 197.36 228.955 197.276 229.59ZM207.089 236.1V234.882H207.999C208.251 234.882 208.438 234.845 208.559 234.77C208.68 234.695 208.774 234.569 208.839 234.392L209.077 233.776H208.615L205.927 226.552H207.495L209.539 232.404L211.485 226.552H213.067L210.099 234.868C209.95 235.297 209.726 235.61 209.427 235.806C209.138 236.002 208.732 236.1 208.209 236.1H207.089ZM216.591 234.168C215.881 234.168 215.261 234.009 214.729 233.692C214.197 233.375 213.786 232.922 213.497 232.334C213.207 231.746 213.063 231.06 213.063 230.276C213.063 229.483 213.207 228.797 213.497 228.218C213.786 227.639 214.197 227.191 214.729 226.874C215.261 226.547 215.881 226.384 216.591 226.384C217.3 226.384 217.921 226.547 218.453 226.874C218.985 227.191 219.395 227.639 219.685 228.218C219.974 228.797 220.119 229.483 220.119 230.276C220.119 231.06 219.974 231.746 219.685 232.334C219.395 232.922 218.985 233.375 218.453 233.692C217.921 234.009 217.3 234.168 216.591 234.168ZM216.591 232.88C217.225 232.88 217.715 232.651 218.061 232.194C218.406 231.727 218.579 231.088 218.579 230.276C218.579 229.464 218.406 228.829 218.061 228.372C217.715 227.905 217.225 227.672 216.591 227.672C215.965 227.672 215.475 227.905 215.121 228.372C214.775 228.829 214.603 229.464 214.603 230.276C214.603 231.088 214.775 231.727 215.121 232.194C215.475 232.651 215.965 232.88 216.591 232.88ZM223.568 234.168C222.822 234.168 222.224 233.921 221.776 233.426C221.338 232.922 221.118 232.227 221.118 231.34V226.552H222.602V230.962C222.602 231.634 222.719 232.129 222.952 232.446C223.186 232.763 223.54 232.922 224.016 232.922C224.558 232.922 224.978 232.749 225.276 232.404C225.584 232.049 225.738 231.555 225.738 230.92V226.552H227.222V234H225.836L225.808 232.054L226.018 232.138C225.888 232.791 225.612 233.295 225.192 233.65C224.772 233.995 224.231 234.168 223.568 234.168ZM228.821 234V226.552H230.179L230.235 228.526L230.109 228.484C230.212 227.812 230.417 227.322 230.725 227.014C231.043 226.706 231.467 226.552 231.999 226.552H232.713V227.882H231.999C231.626 227.882 231.313 227.943 231.061 228.064C230.809 228.185 230.618 228.372 230.487 228.624C230.366 228.876 230.305 229.203 230.305 229.604V234H228.821ZM240.796 234.224C239.853 234.224 239.046 234.005 238.374 233.566C237.702 233.118 237.188 232.507 236.834 231.732C236.479 230.948 236.302 230.052 236.302 229.044C236.302 228.045 236.479 227.154 236.834 226.37C237.198 225.586 237.72 224.97 238.402 224.522C239.083 224.065 239.9 223.836 240.852 223.836C241.664 223.836 242.35 223.981 242.91 224.27C243.479 224.559 243.927 224.956 244.254 225.46C244.59 225.964 244.823 226.538 244.954 227.182L243.372 227.266C243.26 226.659 243.008 226.169 242.616 225.796C242.224 225.413 241.636 225.222 240.852 225.222C240.161 225.222 239.596 225.395 239.158 225.74C238.719 226.085 238.392 226.547 238.178 227.126C237.972 227.705 237.87 228.344 237.87 229.044C237.87 229.772 237.972 230.421 238.178 230.99C238.392 231.559 238.719 232.012 239.158 232.348C239.606 232.675 240.175 232.838 240.866 232.838C241.407 232.838 241.874 232.721 242.266 232.488C242.658 232.255 242.961 231.937 243.176 231.536C243.4 231.135 243.521 230.691 243.54 230.206H240.88V228.932H244.982V234H243.946L243.848 231.76L244.044 231.928C243.941 232.376 243.731 232.773 243.414 233.118C243.096 233.463 242.709 233.734 242.252 233.93C241.804 234.126 241.318 234.224 240.796 234.224ZM248.113 234V225.446H245.061V224.06H252.677V225.446H249.625V234H248.113ZM253.184 234V224.06H255.256L258.21 232.222L261.164 224.06H263.236V234H261.724V226.72L259.05 233.986H257.37L254.696 226.72V234H253.184ZM269.416 234L267.148 226.552H268.702L270.298 232.376L271.936 226.552H273.336L274.974 232.376L276.584 226.552H278.138L275.87 234H274.204L272.636 228.68L271.068 234H269.416ZM278.861 234V226.552H280.345V234H278.861ZM278.833 225.474V223.99H280.373V225.474H278.833ZM284.293 234C283.583 234 283.061 233.837 282.725 233.51C282.389 233.183 282.221 232.675 282.221 231.984V224.802H283.705V231.872C283.705 232.217 283.779 232.455 283.929 232.586C284.078 232.717 284.307 232.782 284.615 232.782H285.679V234H284.293ZM281.087 227.77V226.552H285.679V227.77H281.087ZM286.597 234V224.06H288.081V228.232L287.899 228.204C287.983 227.784 288.137 227.443 288.361 227.182C288.585 226.911 288.86 226.711 289.187 226.58C289.514 226.449 289.873 226.384 290.265 226.384C290.806 226.384 291.264 226.505 291.637 226.748C292.01 226.981 292.29 227.313 292.477 227.742C292.673 228.171 292.771 228.661 292.771 229.212V234H291.287V229.604C291.287 228.932 291.17 228.437 290.937 228.12C290.713 227.793 290.358 227.63 289.873 227.63C289.332 227.63 288.898 227.803 288.571 228.148C288.244 228.484 288.081 228.979 288.081 229.632V234H286.597ZM297.427 234V224.06H300.619C302.177 224.06 303.377 224.494 304.217 225.362C305.057 226.221 305.477 227.448 305.477 229.044C305.477 230.631 305.061 231.853 304.231 232.712C303.409 233.571 302.233 234 300.703 234H297.427ZM298.939 232.614H300.619C301.72 232.614 302.541 232.32 303.083 231.732C303.633 231.135 303.909 230.239 303.909 229.044C303.909 227.831 303.633 226.93 303.083 226.342C302.541 225.745 301.72 225.446 300.619 225.446H298.939V232.614ZM309.094 234.168C308.347 234.168 307.75 233.921 307.302 233.426C306.863 232.922 306.644 232.227 306.644 231.34V226.552H308.128V230.962C308.128 231.634 308.244 232.129 308.478 232.446C308.711 232.763 309.066 232.922 309.542 232.922C310.083 232.922 310.503 232.749 310.802 232.404C311.11 232.049 311.264 231.555 311.264 230.92V226.552H312.748V234H311.362L311.334 232.054L311.544 232.138C311.413 232.791 311.138 233.295 310.718 233.65C310.298 233.995 309.756 234.168 309.094 234.168ZM317.08 234.168C316.38 234.168 315.787 234.061 315.302 233.846C314.826 233.631 314.457 233.337 314.196 232.964C313.935 232.581 313.785 232.143 313.748 231.648L315.274 231.578C315.349 231.989 315.526 232.315 315.806 232.558C316.086 232.801 316.511 232.922 317.08 232.922C317.547 232.922 317.915 232.847 318.186 232.698C318.457 232.549 318.592 232.311 318.592 231.984C318.592 231.807 318.545 231.657 318.452 231.536C318.368 231.405 318.2 231.298 317.948 231.214C317.696 231.121 317.323 231.032 316.828 230.948C316.091 230.808 315.512 230.645 315.092 230.458C314.672 230.271 314.373 230.033 314.196 229.744C314.019 229.455 313.93 229.105 313.93 228.694C313.93 228.013 314.182 227.457 314.686 227.028C315.199 226.599 315.937 226.384 316.898 226.384C317.542 226.384 318.083 226.496 318.522 226.72C318.961 226.935 319.301 227.229 319.544 227.602C319.796 227.966 319.955 228.377 320.02 228.834L318.494 228.918C318.447 228.657 318.354 228.433 318.214 228.246C318.083 228.05 317.906 227.901 317.682 227.798C317.458 227.686 317.192 227.63 316.884 227.63C316.408 227.63 316.053 227.723 315.82 227.91C315.587 228.097 315.47 228.339 315.47 228.638C315.47 228.862 315.521 229.044 315.624 229.184C315.736 229.324 315.913 229.441 316.156 229.534C316.399 229.618 316.721 229.693 317.122 229.758C317.897 229.889 318.503 230.052 318.942 230.248C319.381 230.435 319.689 230.668 319.866 230.948C320.043 231.228 320.132 231.569 320.132 231.97C320.132 232.437 320.001 232.833 319.74 233.16C319.479 233.487 319.119 233.739 318.662 233.916C318.205 234.084 317.677 234.168 317.08 234.168ZM323.717 234C323.007 234 322.485 233.837 322.149 233.51C321.813 233.183 321.645 232.675 321.645 231.984V224.802H323.129V231.872C323.129 232.217 323.203 232.455 323.353 232.586C323.502 232.717 323.731 232.782 324.039 232.782H325.103V234H323.717ZM320.511 227.77V226.552H325.103V227.77H320.511ZM328.237 234L331.821 224.06H333.739L337.323 234H335.713L334.803 231.41H330.743L329.847 234H328.237ZM331.219 230.038H334.341L332.773 225.502L331.219 230.038ZM338.013 234V224.06H339.525V234H338.013ZM190.669 250.168C189.895 250.168 189.274 249.991 188.807 249.636C188.35 249.281 188.121 248.782 188.121 248.138C188.121 247.494 188.313 246.995 188.695 246.64C189.087 246.276 189.689 246.015 190.501 245.856L193.063 245.366C193.063 244.787 192.928 244.358 192.657 244.078C192.387 243.789 191.985 243.644 191.453 243.644C190.977 243.644 190.604 243.751 190.333 243.966C190.063 244.171 189.876 244.479 189.773 244.89L188.247 244.792C188.387 244.045 188.733 243.457 189.283 243.028C189.843 242.599 190.567 242.384 191.453 242.384C192.461 242.384 193.227 242.655 193.749 243.196C194.281 243.728 194.547 244.479 194.547 245.45V248.348C194.547 248.525 194.575 248.651 194.631 248.726C194.697 248.791 194.799 248.824 194.939 248.824H195.205V250C195.159 250.009 195.084 250.019 194.981 250.028C194.879 250.037 194.771 250.042 194.659 250.042C194.342 250.042 194.067 249.991 193.833 249.888C193.609 249.785 193.441 249.617 193.329 249.384C193.217 249.141 193.161 248.819 193.161 248.418L193.315 248.488C193.241 248.815 193.077 249.104 192.825 249.356C192.583 249.608 192.27 249.809 191.887 249.958C191.514 250.098 191.108 250.168 190.669 250.168ZM190.907 248.992C191.355 248.992 191.738 248.908 192.055 248.74C192.373 248.563 192.62 248.32 192.797 248.012C192.975 247.704 193.063 247.354 193.063 246.962V246.486L190.879 246.906C190.431 246.99 190.114 247.125 189.927 247.312C189.75 247.489 189.661 247.718 189.661 247.998C189.661 248.315 189.769 248.563 189.983 248.74C190.207 248.908 190.515 248.992 190.907 248.992ZM198.9 252.268C198.312 252.268 197.794 252.179 197.346 252.002C196.898 251.825 196.529 251.573 196.24 251.246C195.95 250.929 195.754 250.555 195.652 250.126L197.192 250.028C197.294 250.336 197.472 250.579 197.724 250.756C197.985 250.943 198.377 251.036 198.9 251.036C199.516 251.036 199.987 250.905 200.314 250.644C200.65 250.383 200.818 249.986 200.818 249.454V248.376C200.64 248.759 200.356 249.062 199.964 249.286C199.572 249.51 199.133 249.622 198.648 249.622C198.022 249.622 197.467 249.468 196.982 249.16C196.496 248.852 196.118 248.427 195.848 247.886C195.577 247.345 195.442 246.719 195.442 246.01C195.442 245.291 195.572 244.661 195.834 244.12C196.104 243.579 196.478 243.154 196.954 242.846C197.439 242.538 197.985 242.384 198.592 242.384C199.124 242.384 199.59 242.505 199.992 242.748C200.402 242.991 200.696 243.317 200.874 243.728V242.552H202.302V249.412C202.302 250.028 202.162 250.546 201.882 250.966C201.611 251.395 201.219 251.717 200.706 251.932C200.202 252.156 199.6 252.268 198.9 252.268ZM198.886 248.362C199.464 248.362 199.926 248.152 200.272 247.732C200.626 247.312 200.808 246.733 200.818 245.996C200.827 245.511 200.752 245.095 200.594 244.75C200.435 244.395 200.206 244.125 199.908 243.938C199.618 243.742 199.278 243.644 198.886 243.644C198.279 243.644 197.808 243.859 197.472 244.288C197.145 244.708 196.982 245.277 196.982 245.996C196.982 246.724 197.15 247.303 197.486 247.732C197.831 248.152 198.298 248.362 198.886 248.362ZM206.837 250.168C206.109 250.168 205.479 250.009 204.947 249.692C204.424 249.375 204.018 248.922 203.729 248.334C203.449 247.746 203.309 247.06 203.309 246.276C203.309 245.492 203.449 244.811 203.729 244.232C204.018 243.644 204.424 243.191 204.947 242.874C205.469 242.547 206.085 242.384 206.795 242.384C207.467 242.384 208.059 242.543 208.573 242.86C209.086 243.168 209.483 243.616 209.763 244.204C210.052 244.792 210.197 245.501 210.197 246.332V246.71H204.849C204.886 247.438 205.077 247.984 205.423 248.348C205.777 248.712 206.253 248.894 206.851 248.894C207.289 248.894 207.653 248.791 207.943 248.586C208.232 248.381 208.433 248.105 208.545 247.76L210.085 247.858C209.889 248.549 209.501 249.109 208.923 249.538C208.353 249.958 207.658 250.168 206.837 250.168ZM204.849 245.59H208.629C208.582 244.927 208.391 244.437 208.055 244.12C207.728 243.803 207.308 243.644 206.795 243.644C206.263 243.644 205.824 243.812 205.479 244.148C205.143 244.475 204.933 244.955 204.849 245.59ZM211.2 250V242.552H212.558L212.614 244.54L212.432 244.442C212.516 243.957 212.675 243.565 212.908 243.266C213.142 242.967 213.426 242.748 213.762 242.608C214.098 242.459 214.462 242.384 214.854 242.384C215.414 242.384 215.876 242.51 216.24 242.762C216.614 243.005 216.894 243.341 217.08 243.77C217.276 244.19 217.374 244.671 217.374 245.212V250H215.89V245.66C215.89 245.221 215.844 244.853 215.75 244.554C215.657 244.255 215.503 244.027 215.288 243.868C215.074 243.709 214.794 243.63 214.448 243.63C213.926 243.63 213.501 243.803 213.174 244.148C212.848 244.493 212.684 244.997 212.684 245.66V250H211.2ZM221.295 250C220.585 250 220.063 249.837 219.727 249.51C219.391 249.183 219.223 248.675 219.223 247.984V240.802H220.707V247.872C220.707 248.217 220.781 248.455 220.931 248.586C221.08 248.717 221.309 248.782 221.617 248.782H222.681V250H221.295ZM218.089 243.77V242.552H222.681V243.77H218.089ZM226.346 250.168C225.646 250.168 225.053 250.061 224.568 249.846C224.092 249.631 223.723 249.337 223.462 248.964C223.2 248.581 223.051 248.143 223.014 247.648L224.54 247.578C224.614 247.989 224.792 248.315 225.072 248.558C225.352 248.801 225.776 248.922 226.346 248.922C226.812 248.922 227.181 248.847 227.452 248.698C227.722 248.549 227.858 248.311 227.858 247.984C227.858 247.807 227.811 247.657 227.718 247.536C227.634 247.405 227.466 247.298 227.214 247.214C226.962 247.121 226.588 247.032 226.094 246.948C225.356 246.808 224.778 246.645 224.358 246.458C223.938 246.271 223.639 246.033 223.462 245.744C223.284 245.455 223.196 245.105 223.196 244.694C223.196 244.013 223.448 243.457 223.952 243.028C224.465 242.599 225.202 242.384 226.164 242.384C226.808 242.384 227.349 242.496 227.788 242.72C228.226 242.935 228.567 243.229 228.81 243.602C229.062 243.966 229.22 244.377 229.286 244.834L227.76 244.918C227.713 244.657 227.62 244.433 227.48 244.246C227.349 244.05 227.172 243.901 226.948 243.798C226.724 243.686 226.458 243.63 226.15 243.63C225.674 243.63 225.319 243.723 225.086 243.91C224.852 244.097 224.736 244.339 224.736 244.638C224.736 244.862 224.787 245.044 224.89 245.184C225.002 245.324 225.179 245.441 225.422 245.534C225.664 245.618 225.986 245.693 226.388 245.758C227.162 245.889 227.769 246.052 228.208 246.248C228.646 246.435 228.954 246.668 229.132 246.948C229.309 247.228 229.398 247.569 229.398 247.97C229.398 248.437 229.267 248.833 229.006 249.16C228.744 249.487 228.385 249.739 227.928 249.916C227.47 250.084 226.943 250.168 226.346 250.168ZM230.074 250V248.236H231.88V250H230.074Z" fill="black"/>
<g clip-path="url(#clip1_8027_2530)">
<path d="M505.496 634.432L505.496 302L-85.4939 302L-85.4939 634.432L505.496 634.432Z" fill="#0A63B6"/>
<path d="M424.234 302L424.234 314.312C424.234 317.578 422.937 320.709 420.628 323.018C418.319 325.327 415.188 326.625 411.922 326.625C408.657 326.625 405.525 325.327 403.216 323.018C400.907 320.709 399.61 317.578 399.61 314.312L399.61 302L424.234 302Z" fill="#1C91FF"/>
<path d="M399.609 353.711L399.609 341.399C399.609 338.134 400.907 335.002 403.216 332.693C405.525 330.384 408.656 329.087 411.922 329.087C415.187 329.087 418.319 330.384 420.628 332.693C422.937 335.002 424.234 338.134 424.234 341.399L424.234 353.711L399.609 353.711Z" fill="#1C91FF"/>
<path d="M399.609 380.799L399.609 368.487C399.609 365.221 400.907 362.09 403.216 359.781C405.525 357.472 408.656 356.174 411.922 356.174C415.187 356.174 418.319 357.472 420.628 359.781C422.937 362.09 424.234 365.221 424.234 368.487L424.234 380.799L399.609 380.799Z" fill="#1C91FF"/>
<path d="M424.234 383.262C424.234 389.793 421.64 396.056 417.022 400.674C412.404 405.292 406.14 407.887 399.609 407.887L399.609 383.262L424.234 383.262Z" fill="#9FDBFF"/>
<path d="M399.61 422.661C399.61 429.461 405.122 434.973 411.922 434.973C418.722 434.973 424.234 429.461 424.234 422.661C424.234 415.861 418.722 410.348 411.922 410.348C405.122 410.348 399.61 415.861 399.61 422.661Z" fill="#9FDBFF"/>
<path d="M411.922 462.059C418.722 462.059 424.234 456.547 424.234 449.747C424.234 442.947 418.722 437.435 411.922 437.435C405.122 437.435 399.609 442.947 399.609 449.747C399.609 456.547 405.122 462.059 411.922 462.059Z" fill="#9FDBFF"/>
<path d="M411.922 464.523C405.122 464.523 399.61 470.035 399.61 476.835C399.61 483.635 405.122 489.147 411.922 489.147C418.722 489.147 424.234 483.635 424.234 476.835C424.234 470.035 418.722 464.523 411.922 464.523Z" fill="#9FDBFF"/>
<path d="M424.234 516.234L411.922 516.234C408.657 516.234 405.525 514.936 403.216 512.627C400.907 510.318 399.61 507.187 399.61 503.921C399.61 500.656 400.907 497.524 403.216 495.215C405.525 492.906 408.657 491.609 411.922 491.609L424.234 491.609L424.234 516.234Z" fill="#E2F78C"/>
<path d="M424.234 543.321L411.922 543.321C408.657 543.321 405.525 542.024 403.216 539.715C400.907 537.406 399.61 534.274 399.61 531.009C399.61 527.743 400.907 524.611 403.216 522.302C405.525 519.993 408.657 518.696 411.922 518.696L424.234 518.696L424.234 543.321Z" fill="#1C91FF"/>
<path d="M424.234 545.784C424.234 552.315 421.64 558.578 417.022 563.196C412.404 567.814 406.14 570.409 399.609 570.409L399.609 545.784L424.234 545.784Z" fill="#9FDBFF"/>
<path d="M411.922 572.87C405.122 572.87 399.61 578.383 399.61 585.183C399.61 591.982 405.122 597.495 411.922 597.495C418.722 597.495 424.234 591.982 424.234 585.183C424.234 578.383 418.722 572.87 411.922 572.87Z" fill="#FE9C1A"/>
<path d="M397.148 314.312C397.148 307.512 391.636 302 384.836 302C378.036 302 372.523 307.512 372.523 314.312C372.523 321.112 378.036 326.624 384.836 326.624C391.636 326.624 397.148 321.112 397.148 314.312Z" fill="#9FDBFF"/>
<path d="M397.148 341.399C397.148 334.599 391.636 329.087 384.836 329.087C378.036 329.087 372.523 334.599 372.523 341.399C372.523 348.199 378.036 353.712 384.836 353.712C391.636 353.712 397.148 348.199 397.148 341.399Z" fill="#9FDBFF"/>
<path d="M372.523 356.174C379.054 356.174 385.318 358.769 389.936 363.387C394.554 368.005 397.148 374.268 397.148 380.799L372.523 380.799L372.523 356.174Z" fill="#9FDBFF"/>
<path d="M372.523 407.885L372.523 395.573C372.523 392.308 373.821 389.176 376.13 386.867C378.439 384.558 381.57 383.261 384.836 383.261C388.101 383.261 391.233 384.558 393.542 386.867C395.851 389.176 397.148 392.308 397.148 395.573L397.148 407.885L372.523 407.885Z" fill="#1C91FF"/>
<path d="M397.148 422.66C397.148 415.861 391.636 410.348 384.836 410.348C378.036 410.348 372.523 415.861 372.523 422.66C372.523 429.46 378.036 434.973 384.836 434.973C391.636 434.973 397.148 429.46 397.148 422.66Z" fill="#9FDBFF"/>
<path d="M384.836 462.059C391.636 462.059 397.148 456.547 397.148 449.747C397.148 442.947 391.636 437.435 384.836 437.435C378.036 437.435 372.523 442.947 372.523 449.747C372.523 456.547 378.036 462.059 384.836 462.059Z" fill="#9FDBFF"/>
<path d="M384.836 489.147C391.636 489.147 397.148 483.634 397.148 476.834C397.148 470.034 391.636 464.522 384.836 464.522C378.036 464.522 372.523 470.034 372.523 476.834C372.523 483.634 378.036 489.147 384.836 489.147Z" fill="#9FDBFF"/>
<path d="M372.524 503.921C372.524 510.721 378.036 516.234 384.836 516.234C391.636 516.234 397.148 510.721 397.148 503.921C397.148 497.122 391.636 491.609 384.836 491.609C378.036 491.609 372.524 497.122 372.524 503.921Z" fill="#9FDBFF"/>
<path d="M384.836 518.696C378.036 518.696 372.524 524.209 372.524 531.009C372.524 537.808 378.036 543.321 384.836 543.321C391.636 543.321 397.148 537.808 397.148 531.009C397.148 524.209 391.636 518.696 384.836 518.696Z" fill="#9FDBFF"/>
<path d="M397.148 570.409C390.618 570.409 384.354 567.814 379.736 563.196C375.118 558.578 372.524 552.315 372.524 545.784L397.148 545.784L397.148 570.409Z" fill="#9FDBFF"/>
<path d="M372.523 597.495L372.523 585.183C372.523 581.917 373.821 578.785 376.13 576.476C378.439 574.167 381.57 572.87 384.836 572.87C388.101 572.87 391.233 574.167 393.542 576.476C395.851 578.785 397.148 581.917 397.148 585.183L397.148 597.495L372.523 597.495Z" fill="#1C91FF"/>
<path d="M370.062 302L370.062 314.312C370.062 317.578 368.765 320.709 366.456 323.018C364.147 325.327 361.016 326.625 357.75 326.625C354.485 326.625 351.353 325.327 349.044 323.018C346.735 320.709 345.438 317.578 345.438 314.312L345.438 302L370.062 302Z" fill="#1C91FF"/>
<path d="M345.438 329.087L357.75 329.087C361.016 329.087 364.147 330.384 366.456 332.693C368.765 335.002 370.062 338.134 370.062 341.399C370.062 344.665 368.765 347.797 366.456 350.106C364.147 352.415 361.016 353.712 357.75 353.712L345.438 353.712L345.438 329.087Z" fill="#1C91FF"/>
<path d="M345.438 380.799L345.438 368.487C345.438 365.221 346.735 362.09 349.044 359.781C351.353 357.472 354.484 356.174 357.75 356.174C361.015 356.174 364.147 357.472 366.456 359.781C368.765 362.09 370.062 365.221 370.062 368.487L370.062 380.799L345.438 380.799Z" fill="#1C91FF"/>
<path d="M345.438 407.885L345.438 395.573C345.438 392.308 346.735 389.176 349.044 386.867C351.353 384.558 354.484 383.261 357.75 383.261C361.015 383.261 364.147 384.558 366.456 386.867C368.765 389.176 370.062 392.308 370.062 395.573L370.062 407.885L345.438 407.885Z" fill="#FFC3DF"/>
<path d="M370.062 434.973L357.75 434.973C354.485 434.973 351.353 433.676 349.044 431.367C346.735 429.058 345.438 425.926 345.438 422.66C345.438 419.395 346.735 416.263 349.044 413.954C351.353 411.645 354.485 410.348 357.75 410.348L370.063 410.348L370.062 434.973Z" fill="#1C91FF"/>
<path d="M345.438 437.436C351.968 437.436 358.232 440.03 362.85 444.648C367.468 449.266 370.062 455.529 370.062 462.06L345.438 462.06L345.438 437.436Z" fill="#9FDBFF"/>
<path d="M345.438 489.147L345.438 476.835C345.438 473.57 346.735 470.438 349.044 468.129C351.353 465.82 354.484 464.523 357.75 464.523C361.015 464.523 364.147 465.82 366.456 468.129C368.765 470.438 370.062 473.57 370.062 476.835L370.062 489.147L345.438 489.147Z" fill="#FFC3DF"/>
<path d="M345.438 516.234L345.438 503.921C345.438 500.656 346.735 497.524 349.044 495.215C351.353 492.906 354.484 491.609 357.75 491.609C361.015 491.609 364.147 492.906 366.456 495.215C368.765 497.524 370.062 500.656 370.062 503.921L370.062 516.234L345.438 516.234Z" fill="#1C91FF"/>
<path d="M370.062 543.321C363.532 543.321 357.268 540.727 352.65 536.109C348.032 531.491 345.438 525.227 345.438 518.697L370.062 518.697L370.062 543.321Z" fill="#9FDBFF"/>
<path d="M357.75 570.409C364.55 570.409 370.062 564.896 370.062 558.096C370.062 551.297 364.55 545.784 357.75 545.784C350.95 545.784 345.437 551.297 345.437 558.096C345.437 564.896 350.95 570.409 357.75 570.409Z" fill="#9FDBFF"/>
<path d="M370.062 597.495L357.75 597.495C354.485 597.495 351.353 596.198 349.044 593.889C346.735 591.58 345.438 588.448 345.438 585.183C345.438 581.917 346.735 578.785 349.044 576.476C351.353 574.167 354.485 572.87 357.75 572.87L370.063 572.87L370.062 597.495Z" fill="#1C91FF"/>
<path d="M342.972 302C342.972 308.531 340.378 314.794 335.76 319.412C331.142 324.03 324.879 326.625 318.348 326.625L318.348 302L342.972 302Z" fill="#9FDBFF"/>
<path d="M342.972 341.399C342.972 334.599 337.46 329.087 330.66 329.087C323.86 329.087 318.348 334.599 318.348 341.399C318.348 348.199 323.86 353.711 330.66 353.711C337.46 353.711 342.972 348.199 342.972 341.399Z" fill="#9FDBFF"/>
<path d="M330.66 380.798C337.46 380.798 342.972 375.286 342.972 368.486C342.972 361.686 337.46 356.174 330.66 356.174C323.86 356.174 318.348 361.686 318.348 368.486C318.348 375.286 323.86 380.798 330.66 380.798Z" fill="#9FDBFF"/>
<path d="M342.972 407.885L330.66 407.885C327.395 407.885 324.263 406.588 321.954 404.279C319.645 401.97 318.348 398.839 318.348 395.573C318.348 392.308 319.645 389.176 321.954 386.867C324.263 384.558 327.395 383.261 330.66 383.261L342.972 383.261L342.972 407.885Z" fill="#1C91FF"/>
<path d="M342.973 410.348L342.973 422.661C342.973 425.926 341.675 429.058 339.366 431.367C337.057 433.676 333.926 434.973 330.66 434.973C327.395 434.973 324.263 433.676 321.954 431.367C319.645 429.058 318.348 425.926 318.348 422.661L318.348 410.348L342.973 410.348Z" fill="#1C91FF"/>
<path d="M318.348 462.059L318.348 449.747C318.348 446.482 319.645 443.35 321.954 441.041C324.263 438.732 327.395 437.435 330.66 437.435C333.925 437.435 337.057 438.732 339.366 441.041C341.675 443.35 342.972 446.482 342.972 449.747L342.972 462.059L318.348 462.059Z" fill="#1C91FF"/>
<path d="M318.348 489.147L318.348 476.835C318.348 473.57 319.645 470.438 321.954 468.129C324.263 465.82 327.395 464.523 330.66 464.523C333.925 464.523 337.057 465.82 339.366 468.129C341.675 470.438 342.972 473.57 342.972 476.835L342.972 489.147L318.348 489.147Z" fill="#1C91FF"/>
<path d="M342.973 516.234C336.442 516.234 330.178 513.639 325.56 509.021C320.942 504.403 318.348 498.14 318.348 491.609L342.973 491.609L342.973 516.234Z" fill="#9FDBFF"/>
<path d="M318.348 543.321L318.348 531.009C318.348 527.743 319.645 524.611 321.954 522.302C324.263 519.993 327.395 518.696 330.66 518.696C333.925 518.696 337.057 519.993 339.366 522.302C341.675 524.611 342.972 527.743 342.972 531.009L342.972 543.321L318.348 543.321Z" fill="#1C91FF"/>
<path d="M342.972 545.784C342.972 552.315 340.378 558.578 335.76 563.196C331.142 567.814 324.879 570.409 318.348 570.409L318.348 545.784L342.972 545.784Z" fill="#9FDBFF"/>
<path d="M318.348 597.495L318.348 585.183C318.348 581.917 319.645 578.785 321.954 576.476C324.263 574.167 327.395 572.87 330.66 572.87C333.925 572.87 337.057 574.167 339.366 576.476C341.675 578.785 342.972 581.917 342.972 585.183L342.972 597.495L318.348 597.495Z" fill="#1C91FF"/>
<path d="M315.887 326.625C309.356 326.625 303.093 324.03 298.475 319.412C293.857 314.794 291.262 308.531 291.262 302L315.887 302L315.887 326.625Z" fill="#9FDBFF"/>
<path d="M291.262 329.087L303.574 329.087C306.84 329.087 309.972 330.384 312.281 332.693C314.59 335.002 315.887 338.134 315.887 341.399C315.887 344.665 314.59 347.797 312.281 350.106C309.972 352.415 306.84 353.712 303.574 353.712L291.262 353.712L291.262 329.087Z" fill="#1C91FF"/>
<path d="M315.887 380.799L303.574 380.799C300.309 380.799 297.177 379.502 294.868 377.193C292.559 374.884 291.262 371.752 291.262 368.487C291.262 365.221 292.559 362.09 294.868 359.781C297.177 357.472 300.309 356.174 303.574 356.174L315.887 356.174L315.887 380.799Z" fill="#1C91FF"/>
<path d="M315.887 407.887C309.356 407.887 303.093 405.292 298.475 400.674C293.857 396.056 291.262 389.793 291.262 383.262L315.887 383.262L315.887 407.887Z" fill="#9FDBFF"/>
<path d="M315.886 422.66C315.886 415.861 310.374 410.348 303.574 410.348C296.774 410.348 291.262 415.861 291.262 422.66C291.262 429.46 296.774 434.973 303.574 434.973C310.374 434.973 315.886 429.46 315.886 422.66Z" fill="#9FDBFF"/>
<path d="M315.887 437.435L315.887 449.747C315.887 453.012 314.59 456.144 312.281 458.453C309.972 460.762 306.84 462.059 303.574 462.059C300.309 462.059 297.177 460.762 294.868 458.453C292.559 456.144 291.262 453.012 291.262 449.747L291.262 437.435L315.887 437.435Z" fill="#1C91FF"/>
<path d="M315.887 464.523L315.887 476.835C315.887 480.1 314.59 483.232 312.281 485.541C309.972 487.85 306.84 489.147 303.574 489.147C300.309 489.147 297.177 487.85 294.868 485.541C292.559 483.232 291.262 480.1 291.262 476.835L291.262 464.523L315.887 464.523Z" fill="#1C91FF"/>
<path d="M315.887 516.234C309.356 516.234 303.093 513.639 298.475 509.021C293.857 504.403 291.262 498.14 291.262 491.609L315.887 491.609L315.887 516.234Z" fill="#9FDBFF"/>
<path d="M291.262 543.321L291.262 531.009C291.262 527.743 292.559 524.611 294.868 522.302C297.177 519.993 300.309 518.696 303.574 518.696C306.839 518.696 309.971 519.993 312.28 522.302C314.589 524.611 315.886 527.743 315.886 531.009L315.886 543.321L291.262 543.321Z" fill="#1C91FF"/>
<path d="M291.262 570.407C291.262 563.877 293.857 557.613 298.475 552.995C303.093 548.377 309.356 545.783 315.887 545.783L315.887 570.407L291.262 570.407Z" fill="#9FDBFF"/>
<path d="M315.887 572.87L315.887 585.183C315.887 588.448 314.59 591.58 312.281 593.889C309.972 596.198 306.84 597.495 303.574 597.495C300.309 597.495 297.177 596.198 294.868 593.889C292.559 591.58 291.262 588.448 291.262 585.183L291.262 572.87L315.887 572.87Z" fill="#1C91FF"/>
<path d="M288.8 314.312C288.8 307.512 283.288 302 276.488 302C269.688 302 264.176 307.512 264.176 314.312C264.176 321.112 269.688 326.624 276.488 326.624C283.288 326.624 288.8 321.112 288.8 314.312Z" fill="#9FDBFF"/>
<path d="M288.801 329.087L288.801 341.399C288.801 344.665 287.504 347.796 285.195 350.105C282.886 352.414 279.754 353.712 276.488 353.712C273.223 353.712 270.091 352.414 267.782 350.105C265.473 347.796 264.176 344.665 264.176 341.399L264.176 329.087L288.801 329.087Z" fill="#1C91FF"/>
<path d="M288.8 368.487C288.8 361.687 283.288 356.174 276.488 356.174C269.688 356.174 264.176 361.687 264.176 368.487C264.176 375.287 269.688 380.799 276.488 380.799C283.288 380.799 288.8 375.287 288.8 368.487Z" fill="#9FDBFF"/>
<path d="M276.488 383.261C269.689 383.261 264.176 388.773 264.176 395.573C264.176 402.373 269.689 407.885 276.488 407.885C283.288 407.885 288.801 402.373 288.801 395.573C288.801 388.773 283.288 383.261 276.488 383.261Z" fill="#9FDBFF"/>
<path d="M288.801 434.973C282.27 434.973 276.007 432.379 271.389 427.761C266.771 423.143 264.176 416.879 264.176 410.348L288.801 410.348L288.801 434.973Z" fill="#E2F78C"/>
<path d="M264.176 462.06L264.176 449.748C264.176 446.483 265.473 443.351 267.782 441.042C270.091 438.733 273.223 437.436 276.488 437.436C279.753 437.436 282.885 438.733 285.194 441.042C287.503 443.351 288.8 446.483 288.8 449.748L288.8 462.06L264.176 462.06Z" fill="#1C91FF"/>
<path d="M276.488 464.523C269.689 464.523 264.176 470.035 264.176 476.835C264.176 483.635 269.689 489.147 276.488 489.147C283.288 489.147 288.801 483.635 288.801 476.835C288.801 470.035 283.288 464.523 276.488 464.523Z" fill="#9FDBFF"/>
<path d="M288.801 491.609L288.801 503.921C288.801 507.187 287.504 510.318 285.195 512.627C282.886 514.936 279.754 516.234 276.488 516.234C273.223 516.234 270.091 514.936 267.782 512.627C265.473 510.318 264.176 507.187 264.176 503.921L264.176 491.609L288.801 491.609Z" fill="#1C91FF"/>
<path d="M276.488 518.696C269.689 518.696 264.176 524.209 264.176 531.009C264.176 537.808 269.689 543.321 276.488 543.321C283.288 543.321 288.801 537.808 288.801 531.009C288.801 524.209 283.288 518.696 276.488 518.696Z" fill="#9FDBFF"/>
<path d="M264.176 570.407L264.176 558.095C264.176 554.83 265.473 551.698 267.782 549.389C270.091 547.08 273.223 545.783 276.488 545.783C279.753 545.783 282.885 547.08 285.194 549.389C287.503 551.698 288.8 554.83 288.8 558.095L288.8 570.407L264.176 570.407Z" fill="#1C91FF"/>
<path d="M264.176 572.87C270.707 572.87 276.97 575.465 281.588 580.083C286.206 584.701 288.8 590.964 288.8 597.495L264.176 597.495L264.176 572.87Z" fill="#9FDBFF"/>
<path d="M261.711 326.625C255.18 326.625 248.917 324.03 244.299 319.412C239.681 314.794 237.086 308.531 237.086 302L261.711 302L261.711 326.625Z" fill="#9FDBFF"/>
<path d="M237.086 329.087L249.399 329.087C252.664 329.087 255.796 330.384 258.105 332.693C260.414 335.002 261.711 338.134 261.711 341.399C261.711 344.665 260.414 347.797 258.105 350.106C255.796 352.415 252.664 353.712 249.399 353.712L237.086 353.712L237.086 329.087Z" fill="#E2F78C"/>
<path d="M249.399 356.174C242.599 356.174 237.086 361.687 237.086 368.487C237.086 375.287 242.599 380.799 249.399 380.799C256.199 380.799 261.711 375.287 261.711 368.487C261.711 361.687 256.199 356.174 249.399 356.174Z" fill="#E2F78C"/>
<path d="M249.402 407.887C256.202 407.887 261.714 402.374 261.714 395.574C261.714 388.775 256.202 383.262 249.402 383.262C242.602 383.262 237.09 388.775 237.09 395.574C237.09 402.374 242.602 407.887 249.402 407.887Z" fill="#9FDBFF"/>
<path d="M261.711 410.348L261.711 422.66C261.711 425.926 260.414 429.058 258.105 431.367C255.796 433.676 252.664 434.973 249.399 434.973C246.133 434.973 243.002 433.676 240.693 431.367C238.384 429.058 237.086 425.926 237.086 422.66L237.086 410.348L261.711 410.348Z" fill="#E2F78C"/>
<path d="M261.714 449.748C261.714 442.948 256.202 437.436 249.402 437.436C242.602 437.436 237.09 442.948 237.09 449.748C237.09 456.548 242.602 462.06 249.402 462.06C256.202 462.06 261.714 456.548 261.714 449.748Z" fill="#9FDBFF"/>
<path d="M249.402 489.147C256.202 489.147 261.714 483.634 261.714 476.834C261.714 470.034 256.202 464.522 249.402 464.522C242.602 464.522 237.09 470.034 237.09 476.834C237.09 483.634 242.602 489.147 249.402 489.147Z" fill="#9FDBFF"/>
<path d="M261.714 503.921C261.714 497.121 256.202 491.609 249.402 491.609C242.602 491.609 237.09 497.121 237.09 503.921C237.09 510.721 242.602 516.234 249.402 516.234C256.202 516.234 261.714 510.721 261.714 503.921Z" fill="#9FDBFF"/>
<path d="M261.711 543.321L249.399 543.321C246.133 543.321 243.002 542.024 240.693 539.715C238.384 537.406 237.086 534.274 237.086 531.009C237.086 527.743 238.384 524.611 240.693 522.302C243.002 519.993 246.133 518.696 249.399 518.696L261.711 518.696L261.711 543.321Z" fill="#1C91FF"/>
<path d="M249.399 545.783C242.599 545.783 237.086 551.295 237.086 558.095C237.086 564.895 242.599 570.407 249.399 570.407C256.199 570.407 261.711 564.895 261.711 558.095C261.711 551.295 256.199 545.783 249.399 545.783Z" fill="#FE9C1A"/>
<path d="M237.086 585.183C237.086 591.983 242.599 597.495 249.399 597.495C256.199 597.495 261.711 591.983 261.711 585.183C261.711 578.383 256.199 572.87 249.399 572.87C242.599 572.87 237.086 578.383 237.086 585.183Z" fill="#9FDBFF"/>
<path d="M222.313 302C215.513 302 210 307.512 210 314.312C210 321.112 215.513 326.624 222.313 326.624C229.113 326.624 234.625 321.112 234.625 314.312C234.625 307.512 229.113 302 222.313 302Z" fill="#9FDBFF"/>
<path d="M234.625 329.087L234.625 341.399C234.625 344.665 233.328 347.797 231.019 350.106C228.71 352.415 225.578 353.712 222.313 353.712C219.047 353.712 215.916 352.415 213.607 350.106C211.298 347.797 210 344.665 210 341.399L210 329.087L234.625 329.087Z" fill="#1C91FF"/>
<path d="M210 356.174L222.312 356.174C225.578 356.174 228.709 357.471 231.018 359.78C233.327 362.089 234.625 365.22 234.625 368.486C234.625 371.751 233.327 374.883 231.018 377.192C228.709 379.501 225.578 380.798 222.312 380.798L210 380.798L210 356.174Z" fill="#1C91FF"/>
<path d="M210 395.574C210 402.374 215.513 407.887 222.313 407.887C229.113 407.887 234.625 402.374 234.625 395.574C234.625 388.775 229.113 383.262 222.313 383.262C215.513 383.262 210 388.775 210 395.574Z" fill="#9FDBFF"/>
<path d="M234.625 434.973C228.094 434.973 221.831 432.379 217.213 427.761C212.595 423.143 210 416.879 210 410.348L234.625 410.348L234.625 434.973Z" fill="#9FDBFF"/>
<path d="M210 449.747C210 456.547 215.513 462.059 222.313 462.059C229.113 462.059 234.625 456.547 234.625 449.747C234.625 442.947 229.113 437.435 222.313 437.435C215.513 437.435 210 442.947 210 449.747Z" fill="#9FDBFF"/>
<path d="M210 489.147L210 476.835C210 473.57 211.297 470.438 213.606 468.129C215.915 465.82 219.047 464.523 222.312 464.523C225.578 464.523 228.709 465.82 231.018 468.129C233.327 470.438 234.625 473.57 234.625 476.835L234.625 489.147L210 489.147Z" fill="#1C91FF"/>
<path d="M222.313 491.609C215.513 491.609 210 497.121 210 503.921C210 510.721 215.513 516.234 222.313 516.234C229.113 516.234 234.625 510.721 234.625 503.921C234.625 497.121 229.113 491.609 222.313 491.609Z" fill="#9FDBFF"/>
<path d="M234.625 518.696L234.625 531.009C234.625 534.274 233.328 537.406 231.019 539.715C228.71 542.024 225.578 543.321 222.313 543.321C219.047 543.321 215.916 542.024 213.607 539.715C211.298 537.406 210 534.274 210 531.009L210 518.696L234.625 518.696Z" fill="#1C91FF"/>
<path d="M222.313 545.783C215.513 545.783 210 551.295 210 558.095C210 564.895 215.513 570.407 222.313 570.407C229.113 570.407 234.625 564.895 234.625 558.095C234.625 551.295 229.113 545.783 222.313 545.783Z" fill="#9FDBFF"/>
<path d="M210 597.495L210 585.183C210 581.917 211.297 578.785 213.606 576.476C215.915 574.167 219.047 572.87 222.312 572.87C225.578 572.87 228.709 574.167 231.018 576.476C233.327 578.785 234.625 581.917 234.625 585.183L234.625 597.495L210 597.495Z" fill="#1C91FF"/>
<path d="M207.539 314.312C207.539 307.512 202.026 302 195.226 302C188.426 302 182.914 307.512 182.914 314.312C182.914 321.112 188.426 326.624 195.226 326.624C202.026 326.624 207.539 321.112 207.539 314.312Z" fill="#9FDBFF"/>
<path d="M182.914 353.711C182.914 347.181 185.509 340.917 190.127 336.299C194.745 331.681 201.008 329.087 207.539 329.087L207.539 353.711L182.914 353.711Z" fill="#9FDBFF"/>
<path d="M207.539 356.174C207.539 362.704 204.944 368.968 200.326 373.586C195.708 378.204 189.445 380.798 182.914 380.798L182.914 356.174L207.539 356.174Z" fill="#9FDBFF"/>
<path d="M182.914 383.262L195.226 383.262C198.492 383.262 201.623 384.559 203.932 386.868C206.241 389.177 207.539 392.309 207.539 395.574C207.539 398.84 206.241 401.972 203.932 404.281C201.623 406.59 198.492 407.887 195.226 407.887L182.914 407.887L182.914 383.262Z" fill="#1C91FF"/>
<path d="M195.227 410.348C188.427 410.348 182.914 415.861 182.914 422.66C182.914 429.46 188.427 434.973 195.227 434.973C202.027 434.973 207.539 429.46 207.539 422.66C207.539 415.861 202.027 410.348 195.227 410.348Z" fill="#9FDBFF"/>
<path d="M207.539 462.06L195.227 462.06C191.961 462.06 188.83 460.763 186.521 458.454C184.212 456.145 182.914 453.013 182.914 449.748C182.914 446.483 184.212 443.351 186.521 441.042C188.83 438.733 191.961 437.436 195.227 437.436L207.539 437.436L207.539 462.06Z" fill="#FFC3DF"/>
<path d="M182.914 464.523C189.445 464.523 195.708 467.117 200.326 471.735C204.944 476.353 207.539 482.616 207.539 489.147L182.914 489.147L182.914 464.523Z" fill="#9FDBFF"/>
<path d="M207.539 503.921C207.539 497.121 202.026 491.609 195.226 491.609C188.426 491.609 182.914 497.121 182.914 503.921C182.914 510.721 188.426 516.234 195.226 516.234C202.026 516.234 207.539 510.721 207.539 503.921Z" fill="#9FDBFF"/>
<path d="M195.227 518.696C188.427 518.696 182.914 524.209 182.914 531.009C182.914 537.808 188.427 543.321 195.227 543.321C202.027 543.321 207.539 537.808 207.539 531.009C207.539 524.209 202.027 518.696 195.227 518.696Z" fill="#9FDBFF"/>
<path d="M182.914 545.784L195.226 545.784C198.492 545.784 201.623 547.081 203.932 549.39C206.241 551.699 207.539 554.831 207.539 558.096C207.539 561.362 206.241 564.494 203.932 566.803C201.623 569.112 198.492 570.409 195.226 570.409L182.914 570.409L182.914 545.784Z" fill="#1C91FF"/>
<path d="M207.539 597.495L195.227 597.495C191.961 597.495 188.83 596.198 186.521 593.889C184.212 591.58 182.914 588.448 182.914 585.183C182.914 581.917 184.212 578.785 186.521 576.476C188.83 574.167 191.961 572.87 195.227 572.87L207.539 572.87L207.539 597.495Z" fill="#1C91FF"/>
<path d="M155.828 302C162.359 302 168.622 304.594 173.24 309.212C177.858 313.83 180.453 320.093 180.453 326.624L155.828 326.624L155.828 302Z" fill="#9FDBFF"/>
<path d="M155.829 353.712C155.829 347.181 158.423 340.917 163.041 336.299C167.659 331.681 173.922 329.087 180.453 329.087L180.453 353.712L155.829 353.712Z" fill="#9FDBFF"/>
<path d="M155.829 368.486C155.829 375.286 161.341 380.798 168.141 380.798C174.941 380.798 180.453 375.286 180.453 368.486C180.453 361.686 174.941 356.174 168.141 356.174C161.341 356.174 155.829 361.686 155.829 368.486Z" fill="#9FDBFF"/>
<path d="M155.829 407.885C155.829 401.355 158.423 395.091 163.041 390.473C167.659 385.855 173.922 383.261 180.453 383.261L180.453 407.885L155.829 407.885Z" fill="#E2F78C"/>
<path d="M155.828 410.348C162.359 410.348 168.622 412.943 173.24 417.561C177.858 422.179 180.453 428.442 180.453 434.973L155.828 434.973L155.828 410.348Z" fill="#9FDBFF"/>
<path d="M168.141 437.436C161.341 437.436 155.829 442.948 155.829 449.748C155.829 456.548 161.341 462.06 168.141 462.06C174.941 462.06 180.453 456.548 180.453 449.748C180.453 442.948 174.941 437.436 168.141 437.436Z" fill="#9FDBFF"/>
<path d="M180.453 489.147C173.922 489.147 167.659 486.552 163.041 481.934C158.423 477.316 155.829 471.053 155.829 464.522L180.453 464.522L180.453 489.147Z" fill="#FE9C1A"/>
<path d="M155.829 503.921C155.829 510.721 161.341 516.234 168.141 516.234C174.941 516.234 180.453 510.721 180.453 503.921C180.453 497.122 174.941 491.609 168.141 491.609C161.341 491.609 155.829 497.122 155.829 503.921Z" fill="#9FDBFF"/>
<path d="M155.828 543.321L155.828 531.009C155.828 527.743 157.125 524.611 159.434 522.302C161.743 519.993 164.875 518.696 168.14 518.696C171.406 518.696 174.538 519.993 176.847 522.302C179.156 524.611 180.453 527.743 180.453 531.009L180.453 543.321L155.828 543.321Z" fill="#1C91FF"/>
<path d="M180.453 570.407L168.141 570.407C164.875 570.407 161.744 569.11 159.435 566.801C157.126 564.492 155.829 561.36 155.829 558.095C155.829 554.83 157.126 551.698 159.435 549.389C161.744 547.08 164.875 545.783 168.141 545.783L180.453 545.783L180.453 570.407Z" fill="#1C91FF"/>
<path d="M155.828 572.87L168.14 572.87C171.406 572.87 174.538 574.168 176.847 576.477C179.156 578.786 180.453 581.917 180.453 585.183C180.453 588.448 179.156 591.58 176.847 593.889C174.538 596.198 171.406 597.495 168.14 597.495L155.828 597.495L155.828 572.87Z" fill="#1C91FF"/>
<path d="M128.739 302L141.051 302C144.316 302 147.448 303.297 149.757 305.606C152.066 307.915 153.363 311.047 153.363 314.312C153.363 317.578 152.066 320.709 149.757 323.018C147.448 325.327 144.316 326.625 141.051 326.625L128.739 326.625L128.739 302Z" fill="#1C91FF"/>
<path d="M128.738 329.087L141.051 329.087C144.316 329.087 147.448 330.384 149.757 332.693C152.066 335.002 153.363 338.134 153.363 341.399C153.363 344.665 152.066 347.797 149.757 350.106C147.448 352.415 144.316 353.712 141.051 353.712L128.738 353.712L128.738 329.087Z" fill="#1C91FF"/>
<path d="M153.363 356.174L153.363 368.486C153.363 371.751 152.066 374.883 149.757 377.192C147.448 379.501 144.316 380.798 141.051 380.798C137.786 380.798 134.654 379.501 132.345 377.192C130.036 374.883 128.739 371.751 128.739 368.486L128.739 356.174L153.363 356.174Z" fill="#1C91FF"/>
<path d="M153.363 383.262L153.363 395.574C153.363 398.84 152.066 401.972 149.757 404.281C147.448 406.59 144.316 407.887 141.051 407.887C137.786 407.887 134.654 406.59 132.345 404.281C130.036 401.972 128.739 398.84 128.739 395.574L128.739 383.262L153.363 383.262Z" fill="#1C91FF"/>
<path d="M153.363 434.973L141.051 434.973C137.786 434.973 134.654 433.676 132.345 431.367C130.036 429.058 128.739 425.926 128.739 422.66C128.739 419.395 130.036 416.263 132.345 413.954C134.654 411.645 137.786 410.348 141.051 410.348L153.363 410.348L153.363 434.973Z" fill="#1C91FF"/>
<path d="M128.739 462.06C128.739 455.529 131.333 449.266 135.951 444.648C140.569 440.03 146.832 437.436 153.363 437.436L153.363 462.06L128.739 462.06Z" fill="#9FDBFF"/>
<path d="M153.363 489.147C146.832 489.147 140.569 486.552 135.951 481.934C131.333 477.316 128.739 471.053 128.739 464.522L153.363 464.522L153.363 489.147Z" fill="#9FDBFF"/>
<path d="M141.051 516.234C147.85 516.234 153.363 510.721 153.363 503.921C153.363 497.122 147.85 491.609 141.051 491.609C134.251 491.609 128.738 497.122 128.738 503.921C128.738 510.721 134.251 516.234 141.051 516.234Z" fill="#9FDBFF"/>
<path d="M141.051 543.321C147.85 543.321 153.363 537.809 153.363 531.009C153.363 524.209 147.85 518.697 141.051 518.697C134.251 518.697 128.738 524.209 128.738 531.009C128.738 537.809 134.251 543.321 141.051 543.321Z" fill="#9FDBFF"/>
<path d="M128.739 570.407C128.739 563.877 131.333 557.613 135.951 552.995C140.569 548.377 146.832 545.783 153.363 545.783L153.363 570.407L128.739 570.407Z" fill="#E2F78C"/>
<path d="M128.739 585.183C128.739 591.983 134.251 597.495 141.051 597.495C147.851 597.495 153.363 591.983 153.363 585.183C153.363 578.383 147.851 572.87 141.051 572.87C134.251 572.87 128.739 578.383 128.739 585.183Z" fill="#9FDBFF"/>
<path d="M101.653 326.624C101.653 320.093 104.247 313.83 108.865 309.212C113.483 304.594 119.746 302 126.277 302L126.277 326.624L101.653 326.624Z" fill="#9FDBFF"/>
<path d="M101.652 329.087C108.183 329.087 114.447 331.681 119.065 336.299C123.683 340.917 126.277 347.181 126.277 353.712L101.652 353.712L101.652 329.087Z" fill="#9FDBFF"/>
<path d="M101.652 380.798L101.652 368.486C101.652 365.22 102.95 362.089 105.259 359.78C107.568 357.471 110.699 356.174 113.965 356.174C117.23 356.174 120.362 357.471 122.671 359.78C124.98 362.089 126.277 365.22 126.277 368.486L126.277 380.798L101.652 380.798Z" fill="#1C91FF"/>
<path d="M101.653 383.262L113.965 383.262C117.23 383.262 120.362 384.559 122.671 386.868C124.98 389.177 126.277 392.309 126.277 395.574C126.277 398.84 124.98 401.972 122.671 404.281C120.362 406.59 117.23 407.887 113.965 407.887L101.653 407.887L101.653 383.262Z" fill="#1C91FF"/>
<path d="M101.652 410.348C108.183 410.348 114.447 412.943 119.065 417.561C123.683 422.179 126.277 428.442 126.277 434.973L101.652 434.973L101.652 410.348Z" fill="#9FDBFF"/>
<path d="M126.277 437.435L126.277 449.747C126.277 453.012 124.98 456.144 122.671 458.453C120.362 460.762 117.23 462.059 113.965 462.059C110.7 462.059 107.568 460.762 105.259 458.453C102.95 456.144 101.653 453.012 101.653 449.747L101.653 437.435L126.277 437.435Z" fill="#1C91FF"/>
<path d="M126.277 489.147L113.965 489.147C110.7 489.147 107.568 487.85 105.259 485.541C102.95 483.232 101.653 480.1 101.653 476.835C101.653 473.57 102.95 470.438 105.259 468.129C107.568 465.82 110.7 464.523 113.965 464.523L126.277 464.523L126.277 489.147Z" fill="#1C91FF"/>
<path d="M126.277 491.609L126.277 503.921C126.277 507.187 124.98 510.319 122.671 512.628C120.362 514.937 117.23 516.234 113.965 516.234C110.7 516.234 107.568 514.937 105.259 512.628C102.95 510.319 101.653 507.187 101.653 503.921L101.653 491.609L126.277 491.609Z" fill="#1C91FF"/>
<path d="M126.277 518.697L126.277 531.009C126.277 534.274 124.98 537.406 122.671 539.715C120.362 542.024 117.23 543.321 113.965 543.321C110.7 543.321 107.568 542.024 105.259 539.715C102.95 537.406 101.653 534.274 101.653 531.009L101.653 518.697L126.277 518.697Z" fill="#E2F78C"/>
<path d="M101.652 545.784L113.965 545.784C117.23 545.784 120.362 547.081 122.671 549.39C124.98 551.699 126.277 554.831 126.277 558.096C126.277 561.362 124.98 564.494 122.671 566.803C120.362 569.112 117.23 570.409 113.965 570.409L101.652 570.409L101.652 545.784Z" fill="#1C91FF"/>
<path d="M126.277 572.87L126.277 585.183C126.277 588.448 124.98 591.58 122.671 593.889C120.362 596.198 117.23 597.495 113.965 597.495C110.7 597.495 107.568 596.198 105.259 593.889C102.95 591.58 101.653 588.448 101.653 585.183L101.653 572.87L126.277 572.87Z" fill="#1C91FF"/>
<path d="M74.5668 326.624C74.5668 320.093 77.1612 313.83 81.7792 309.212C86.3972 304.594 92.6606 302 99.1914 302L99.1914 326.624L74.5668 326.624Z" fill="#9FDBFF"/>
<path d="M74.5668 341.399C74.5668 348.199 80.0792 353.712 86.8791 353.712C93.679 353.712 99.1914 348.199 99.1914 341.399C99.1914 334.6 93.679 329.087 86.8791 329.087C80.0792 329.087 74.5668 334.6 74.5668 341.399Z" fill="#9FDBFF"/>
<path d="M74.5664 380.799L74.5664 368.487C74.5664 365.221 75.8636 362.09 78.1726 359.781C80.4816 357.472 83.6133 356.174 86.8787 356.174C90.1441 356.174 93.2758 357.472 95.5848 359.781C97.8938 362.09 99.191 365.221 99.191 368.487L99.191 380.799L74.5664 380.799Z" fill="#1C91FF"/>
<path d="M74.5668 407.885C74.5668 401.355 77.1612 395.091 81.7792 390.473C86.3972 385.855 92.6606 383.261 99.1914 383.261L99.1914 407.885L74.5668 407.885Z" fill="#FE9C1A"/>
<path d="M99.191 422.66C99.191 415.861 93.6786 410.348 86.8787 410.348C80.0788 410.348 74.5664 415.861 74.5664 422.66C74.5664 429.46 80.0788 434.973 86.8787 434.973C93.6786 434.973 99.191 429.46 99.191 422.66Z" fill="#FE9C1A"/>
<path d="M99.191 437.435C99.191 443.966 96.5966 450.229 91.9786 454.847C87.3606 459.465 81.0973 462.059 74.5664 462.059L74.5664 437.435L99.191 437.435Z" fill="#9FDBFF"/>
<path d="M74.5664 464.522L86.8787 464.522C90.1441 464.522 93.2758 465.819 95.5848 468.128C97.8938 470.437 99.191 473.569 99.191 476.834C99.191 480.1 97.8938 483.231 95.5848 485.54C93.2758 487.849 90.1441 489.147 86.8787 489.147L74.5664 489.147L74.5664 464.522Z" fill="#1C91FF"/>
<path d="M86.8787 516.234C93.6786 516.234 99.191 510.721 99.191 503.921C99.191 497.122 93.6786 491.609 86.8787 491.609C80.0788 491.609 74.5664 497.122 74.5664 503.921C74.5664 510.721 80.0788 516.234 86.8787 516.234Z" fill="#9FDBFF"/>
<path d="M74.5664 518.696C81.0973 518.696 87.3606 521.291 91.9786 525.909C96.5966 530.527 99.191 536.79 99.191 543.321L74.5664 543.321L74.5664 518.696Z" fill="#9FDBFF"/>
<path d="M74.5664 570.407L74.5664 558.095C74.5664 554.83 75.8636 551.698 78.1726 549.389C80.4816 547.08 83.6133 545.783 86.8787 545.783C90.1441 545.783 93.2758 547.08 95.5848 549.389C97.8938 551.698 99.191 554.83 99.191 558.095L99.191 570.407L74.5664 570.407Z" fill="#1C91FF"/>
<path d="M74.5664 597.495L74.5664 585.183C74.5664 581.917 75.8636 578.786 78.1726 576.477C80.4816 574.168 83.6133 572.87 86.8787 572.87C90.1441 572.87 93.2758 574.168 95.5848 576.477C97.8938 578.786 99.191 581.917 99.191 585.183L99.191 597.495L74.5664 597.495Z" fill="#1C91FF"/>
<path d="M72.1016 326.625C65.5707 326.625 59.3074 324.03 54.6894 319.412C50.0713 314.794 47.477 308.531 47.477 302L72.1016 302L72.1016 326.625Z" fill="#9FDBFF"/>
<path d="M47.4805 329.087C54.0113 329.087 60.2747 331.681 64.8927 336.299C69.5107 340.917 72.1051 347.181 72.1051 353.712L47.4805 353.712L47.4805 329.087Z" fill="#E2F78C"/>
<path d="M59.7893 356.174C52.9894 356.174 47.477 361.687 47.477 368.487C47.477 375.287 52.9894 380.799 59.7893 380.799C66.5892 380.799 72.1016 375.287 72.1016 368.487C72.1016 361.687 66.5892 356.174 59.7893 356.174Z" fill="#9FDBFF"/>
<path d="M72.1051 383.262C72.105 389.793 69.5107 396.056 64.8927 400.674C60.2747 405.292 54.0113 407.887 47.4805 407.887L47.4805 383.262L72.1051 383.262Z" fill="#9FDBFF"/>
<path d="M47.4805 410.348C54.0113 410.348 60.2747 412.943 64.8927 417.561C69.5107 422.179 72.1051 428.442 72.1051 434.973L47.4805 434.973L47.4805 410.348Z" fill="#9FDBFF"/>
<path d="M72.105 449.748C72.105 442.948 66.5927 437.436 59.7928 437.436C52.9929 437.436 47.4805 442.948 47.4805 449.748C47.4805 456.548 52.9929 462.06 59.7928 462.06C66.5926 462.06 72.105 456.548 72.105 449.748Z" fill="#9FDBFF"/>
<path d="M72.1016 464.523L72.1016 476.835C72.1016 480.1 70.8044 483.232 68.4954 485.541C66.1864 487.85 63.0547 489.147 59.7893 489.147C56.5238 489.147 53.3922 487.85 51.0832 485.541C48.7742 483.232 47.477 480.1 47.477 476.835L47.477 464.523L72.1016 464.523Z" fill="#1C91FF"/>
<path d="M47.4805 491.609L59.7928 491.609C63.0582 491.609 66.1899 492.906 68.4989 495.215C70.8079 497.524 72.105 500.656 72.105 503.921C72.105 507.187 70.8079 510.319 68.4989 512.628C66.1899 514.937 63.0582 516.234 59.7928 516.234L47.4805 516.234L47.4805 491.609Z" fill="#1C91FF"/>
<path d="M59.7928 543.321C66.5926 543.321 72.105 537.809 72.105 531.009C72.105 524.209 66.5926 518.697 59.7928 518.697C52.9929 518.697 47.4805 524.209 47.4805 531.009C47.4805 537.809 52.9929 543.321 59.7928 543.321Z" fill="#9FDBFF"/>
<path d="M47.4805 570.409L47.4805 558.096C47.4805 554.831 48.7777 551.699 51.0867 549.39C53.3957 547.081 56.5273 545.784 59.7928 545.784C63.0582 545.784 66.1899 547.081 68.4989 549.39C70.8079 551.699 72.105 554.831 72.105 558.096L72.105 570.409L47.4805 570.409Z" fill="#1C91FF"/>
<path d="M59.7893 572.87C52.9894 572.87 47.477 578.383 47.477 585.183C47.477 591.982 52.9894 597.495 59.7893 597.495C66.5892 597.495 72.1016 591.982 72.1016 585.183C72.1016 578.383 66.5892 572.87 59.7893 572.87Z" fill="#9FDBFF"/>
<path d="M20.391 302L32.7033 302C35.9688 302 39.1004 303.297 41.4094 305.606C43.7184 307.915 45.0156 311.047 45.0156 314.312C45.0156 317.578 43.7184 320.709 41.4094 323.018C39.1004 325.327 35.9688 326.625 32.7033 326.625L20.391 326.625L20.391 302Z" fill="#1C91FF"/>
<path d="M20.3906 353.711L20.3906 341.399C20.3906 338.134 21.6878 335.002 23.9968 332.693C26.3058 330.384 29.4375 329.087 32.7029 329.087C35.9683 329.087 39.1 330.384 41.409 332.693C43.718 335.002 45.0152 338.134 45.0152 341.399L45.0152 353.711L20.3906 353.711Z" fill="#1C91FF"/>
<path d="M45.0152 380.799L32.7029 380.799C29.4375 380.799 26.3058 379.502 23.9968 377.193C21.6878 374.884 20.3906 371.752 20.3906 368.487C20.3906 365.221 21.6878 362.09 23.9968 359.781C26.3058 357.472 29.4375 356.174 32.7029 356.174L45.0152 356.174L45.0152 380.799Z" fill="#1C91FF"/>
<path d="M45.0156 407.885L32.7033 407.885C29.4379 407.885 26.3062 406.588 23.9972 404.279C21.6882 401.97 20.391 398.839 20.391 395.573C20.391 392.308 21.6882 389.176 23.9972 386.867C26.3062 384.558 29.4379 383.261 32.7033 383.261L45.0156 383.261L45.0156 407.885Z" fill="#FFC3DF"/>
<path d="M20.391 422.661C20.391 429.461 25.9034 434.973 32.7033 434.973C39.5032 434.973 45.0156 429.461 45.0156 422.661C45.0156 415.861 39.5032 410.348 32.7033 410.348C25.9034 410.348 20.391 415.861 20.391 422.661Z" fill="#9FDBFF"/>
<path d="M20.3906 462.059L20.3906 449.747C20.3906 446.482 21.6878 443.35 23.9968 441.041C26.3058 438.732 29.4375 437.435 32.7029 437.435C35.9683 437.435 39.1 438.732 41.409 441.041C43.718 443.35 45.0152 446.482 45.0152 449.747L45.0152 462.059L20.3906 462.059Z" fill="#1C91FF"/>
<path d="M45.0152 476.835C45.0152 470.035 39.5028 464.523 32.7029 464.523C25.903 464.523 20.3906 470.035 20.3906 476.835C20.3906 483.635 25.903 489.147 32.7029 489.147C39.5028 489.147 45.0152 483.635 45.0152 476.835Z" fill="#9FDBFF"/>
<path d="M20.3906 516.234L20.3906 503.921C20.3906 500.656 21.6878 497.524 23.9968 495.215C26.3058 492.906 29.4375 491.609 32.7029 491.609C35.9683 491.609 39.1 492.906 41.409 495.215C43.718 497.524 45.0152 500.656 45.0152 503.921L45.0152 516.234L20.3906 516.234Z" fill="#1C91FF"/>
<path d="M20.3906 543.321L20.3906 531.009C20.3906 527.743 21.6878 524.611 23.9968 522.302C26.3058 519.993 29.4375 518.696 32.7029 518.696C35.9683 518.696 39.1 519.993 41.409 522.302C43.718 524.611 45.0152 527.743 45.0152 531.009L45.0152 543.321L20.3906 543.321Z" fill="#1C91FF"/>
<path d="M20.3906 570.409L20.3906 558.096C20.3906 554.831 21.6878 551.699 23.9968 549.39C26.3058 547.081 29.4375 545.784 32.7029 545.784C35.9683 545.784 39.1 547.081 41.409 549.39C43.718 551.699 45.0152 554.831 45.0152 558.096L45.0152 570.409L20.3906 570.409Z" fill="#1C91FF"/>
<path d="M20.3906 597.495L20.3906 585.183C20.3906 581.917 21.6878 578.785 23.9968 576.476C26.3058 574.167 29.4375 572.87 32.7029 572.87C35.9683 572.87 39.1 574.167 41.409 576.476C43.718 578.785 45.0152 581.917 45.0152 585.183L45.0152 597.495L20.3906 597.495Z" fill="#E2F78C"/>
<path d="M17.9293 314.312C17.9293 307.512 12.4169 302 5.61698 302C-1.18291 302 -6.69531 307.512 -6.69531 314.312C-6.69531 321.112 -1.18291 326.624 5.61698 326.624C12.4169 326.624 17.9293 321.112 17.9293 314.312Z" fill="#9FDBFF"/>
<path d="M-6.69489 329.087L5.6174 329.087C8.88282 329.087 12.0145 330.384 14.3235 332.693C16.6325 335.002 17.9297 338.134 17.9297 341.399C17.9297 344.665 16.6325 347.797 14.3235 350.106C12.0145 352.415 8.88282 353.712 5.6174 353.712L-6.69489 353.712L-6.69489 329.087Z" fill="#E2F78C"/>
<path d="M17.9293 368.487C17.9293 361.687 12.4169 356.174 5.61698 356.174C-1.18291 356.174 -6.69531 361.687 -6.69531 368.487C-6.69531 375.287 -1.18291 380.799 5.61698 380.799C12.4169 380.799 17.9293 375.287 17.9293 368.487Z" fill="#9FDBFF"/>
<path d="M-6.69531 383.262L5.61698 383.262C8.8824 383.262 12.0141 384.559 14.3231 386.868C16.6321 389.177 17.9293 392.309 17.9293 395.574C17.9293 398.84 16.6321 401.972 14.3231 404.281C12.0141 406.59 8.8824 407.887 5.61698 407.887L-6.69531 407.887L-6.69531 383.262Z" fill="#1C91FF"/>
<path d="M-6.69531 434.973L-6.69531 422.661C-6.69531 419.395 -5.39813 416.264 -3.08913 413.955C-0.780124 411.646 2.35156 410.348 5.61698 410.348C8.8824 410.348 12.0141 411.646 14.3231 413.955C16.6321 416.264 17.9293 419.395 17.9293 422.661L17.9293 434.973L-6.69531 434.973Z" fill="#1C91FF"/>
<path d="M17.9297 462.059C11.3988 462.059 5.13548 459.465 0.517478 454.847C-4.10053 450.229 -6.69489 443.966 -6.69489 437.435L17.9297 437.435L17.9297 462.059Z" fill="#9FDBFF"/>
<path d="M-6.69531 489.147L-6.69531 476.835C-6.69531 473.57 -5.39813 470.438 -3.08913 468.129C-0.780123 465.82 2.35156 464.523 5.61698 464.523C8.8824 464.523 12.0141 465.82 14.3231 468.129C16.6321 470.438 17.9293 473.57 17.9293 476.835L17.9293 489.147L-6.69531 489.147Z" fill="#1C91FF"/>
<path d="M17.9293 503.921C17.9293 497.121 12.4169 491.609 5.61698 491.609C-1.18291 491.609 -6.69531 497.121 -6.69531 503.921C-6.69531 510.721 -1.18291 516.234 5.61698 516.234C12.4169 516.234 17.9293 510.721 17.9293 503.921Z" fill="#FE9C1A"/>
<path d="M-6.69489 543.321C-6.69489 536.79 -4.10053 530.527 0.51748 525.909C5.13548 521.291 11.3988 518.696 17.9297 518.696L17.9297 543.321L-6.69489 543.321Z" fill="#9FDBFF"/>
<path d="M17.9297 545.783L17.9297 558.095C17.9297 561.36 16.6325 564.492 14.3235 566.801C12.0145 569.11 8.88282 570.407 5.6174 570.407C2.35197 570.407 -0.779705 569.11 -3.08871 566.801C-5.39771 564.492 -6.69489 561.36 -6.69489 558.095L-6.69489 545.783L17.9297 545.783Z" fill="#1C91FF"/>
<path d="M17.9297 572.87L17.9297 585.183C17.9297 588.448 16.6325 591.58 14.3235 593.889C12.0145 596.198 8.88282 597.495 5.6174 597.495C2.35197 597.495 -0.779706 596.198 -3.08871 593.889C-5.39771 591.58 -6.69489 588.448 -6.69489 585.183L-6.69489 572.87L17.9297 572.87Z" fill="#FFC3DF"/>
</g>
</g>
<defs>
<clipPath id="clip0_8027_2530">
<rect width="420" height="595" fill="white"/>
</clipPath>
<clipPath id="clip1_8027_2530">
<rect width="332.432" height="590.99" fill="white" transform="translate(505.496 302) rotate(90)"/>
</clipPath>
</defs>
</svg>
