<svg width="32" height="32" viewBox="0 0 32 32" fill="none" xmlns="http://www.w3.org/2000/svg">
<g clip-path="url(#clip0_2002_34)">
<mask id="mask0_2002_34" style="mask-type:alpha" maskUnits="userSpaceOnUse" x="0" y="0" width="32" height="32">
<path d="M16 32C24.8366 32 32 24.8366 32 16C32 7.16344 24.8366 0 16 0C7.16344 0 0 7.16344 0 16C0 24.8366 7.16344 32 16 32Z" fill="white"/>
</mask>
<g mask="url(#mask0_2002_34)">
<path d="M0 0H32V32H0V0Z" fill="#0052B4"/>
<path d="M16 6.26245L16.5187 7.8562H18.1875L16.8312 8.83745L17.35 10.4375L15.9937 9.44995L14.6375 10.4375L15.1562 8.83745L13.8 7.8562H15.475L16 6.26245ZM9.11245 9.11245L10.6125 9.87495L11.7937 8.68745L11.5312 10.3437L13.025 11.1062L11.3687 11.3687L11.1062 13.025L10.3437 11.525L8.68745 11.7937L9.87495 10.6062L9.11245 9.11245ZM6.26245 16L7.8562 15.4812V13.8125L8.83745 15.1687L10.4375 14.65L9.44995 16.0062L10.4375 17.3625L8.83745 16.8437L7.8562 18.2V16.525L6.26245 16ZM9.11245 22.8875L9.87495 21.3875L8.68745 20.2062L10.3437 20.4687L11.1062 18.975L11.3687 20.6312L13.025 20.8937L11.525 21.6562L11.7937 23.3125L10.6062 22.125L9.11245 22.8875ZM16 25.7374L15.4812 24.1437H13.8125L15.1687 23.1625L14.65 21.5625L16.0062 22.5499L17.3625 21.5625L16.8437 23.1625L18.2 24.1437H16.525L16 25.7374ZM22.8875 22.8875L21.3875 22.125L20.2062 23.3125L20.4687 21.6562L18.975 20.8937L20.6312 20.6312L20.8937 18.975L21.6562 20.475L23.3125 20.2062L22.125 21.3937L22.8875 22.8875ZM25.7374 16L24.1437 16.5187V18.1875L23.1625 16.8312L21.5625 17.35L22.5499 15.9937L21.5625 14.6375L23.1625 15.1562L24.1437 13.8V15.475L25.7374 16ZM22.8875 9.11245L22.125 10.6125L23.3125 11.7937L21.6562 11.5312L20.8937 13.025L20.6312 11.3687L18.975 11.1062L20.475 10.3437L20.2062 8.68745L21.3937 9.87495L22.8875 9.11245Z" fill="#FFDA44"/>
</g>
</g>
<defs>
<clipPath id="clip0_2002_34">
<rect width="32" height="32" fill="white"/>
</clipPath>
</defs>
</svg>
